solid CATIA STL
  facet normal  9.961947e-01  0.000000e+00 -8.715574e-02
    outer loop
      vertex  0.000000e+00  5.919615e+01  0.000000e+00
      vertex  0.000000e+00  0.000000e+00  0.000000e+00
      vertex -2.187609e-01 -2.187609e-01 -2.500449e+00
    endloop
  endfacet
  facet normal  9.961673e-01  1.324394e-05 -8.746805e-02
    outer loop
      vertex  0.000000e+00  5.919615e+01  0.000000e+00
      vertex -2.187609e-01 -2.187609e-01 -2.500449e+00
      vertex -2.190000e-01  2.072818e+01 -2.500000e+00
    endloop
  endfacet
  facet normal  9.961851e-01  0.000000e+00 -8.726581e-02
    outer loop
      vertex  0.000000e+00  5.919615e+01  0.000000e+00
      vertex -2.190000e-01  2.072818e+01 -2.500000e+00
      vertex -2.190000e-01  2.127018e+01 -2.500000e+00
    endloop
  endfacet
  facet normal  9.961851e-01  0.000000e+00 -8.726580e-02
    outer loop
      vertex  0.000000e+00  5.919615e+01  0.000000e+00
      vertex -2.190000e-01  2.127018e+01 -2.500000e+00
      vertex -2.190000e-01  4.027018e+01 -2.500000e+00
    endloop
  endfacet
  facet normal  9.961851e-01  0.000000e+00 -8.726580e-02
    outer loop
      vertex  0.000000e+00  5.919615e+01  0.000000e+00
      vertex -2.190000e-01  4.027018e+01 -2.500000e+00
      vertex -2.190000e-01  4.081218e+01 -2.500000e+00
    endloop
  endfacet
  facet normal  9.961947e-01 -1.508268e-05 -8.715574e-02
    outer loop
      vertex  0.000000e+00  5.919615e+01  0.000000e+00
      vertex -2.190000e-01  4.081218e+01 -2.500000e+00
      vertex -2.187217e-01  5.919615e+01 -2.500000e+00
    endloop
  endfacet
  facet normal -9.961947e-01  -0.000000e+00 -8.715563e-02
    outer loop
      vertex  2.500000e+01  0.000000e+00  0.000000e+00
      vertex  2.500000e+01  5.919615e+01  0.000000e+00
      vertex  2.521872e+01  5.919615e+01 -2.500000e+00
    endloop
  endfacet
  facet normal -9.961636e-01 -1.508948e-05 -8.751021e-02
    outer loop
      vertex  2.500000e+01  0.000000e+00  0.000000e+00
      vertex  2.521872e+01  5.919615e+01 -2.500000e+00
      vertex  2.521900e+01  4.081218e+01 -2.500000e+00
    endloop
  endfacet
  facet normal -9.961851e-01  -0.000000e+00 -8.726576e-02
    outer loop
      vertex  2.500000e+01  0.000000e+00  0.000000e+00
      vertex  2.521900e+01  4.081218e+01 -2.500000e+00
      vertex  2.521900e+01  4.027018e+01 -2.500000e+00
    endloop
  endfacet
  facet normal -9.961851e-01  -0.000000e+00 -8.726575e-02
    outer loop
      vertex  2.500000e+01  0.000000e+00  0.000000e+00
      vertex  2.521900e+01  4.027018e+01 -2.500000e+00
      vertex  2.521900e+01  2.127018e+01 -2.500000e+00
    endloop
  endfacet
  facet normal -9.961851e-01  -0.000000e+00 -8.726576e-02
    outer loop
      vertex  2.500000e+01  0.000000e+00  0.000000e+00
      vertex  2.521900e+01  2.127018e+01 -2.500000e+00
      vertex  2.521900e+01  2.072818e+01 -2.500000e+00
    endloop
  endfacet
  facet normal -9.961946e-01  1.320570e-05 -8.715711e-02
    outer loop
      vertex  2.500000e+01  0.000000e+00  0.000000e+00
      vertex  2.521900e+01  2.072818e+01 -2.500000e+00
      vertex  2.521876e+01 -2.187609e-01 -2.500449e+00
    endloop
  endfacet
  facet normal  9.949359e-01 -5.025584e-02 -8.704565e-02
    outer loop
      vertex  1.776357e-15  7.299038e+01 -7.500000e+00
      vertex  0.000000e+00  6.069615e+01 -4.019238e-01
      vertex -2.214416e-01  6.860641e+01 -7.500000e+00
    endloop
  endfacet
  facet normal  9.949359e-01 -5.025578e-02 -8.704559e-02
    outer loop
      vertex -2.214416e-01  6.860641e+01 -7.500000e+00
      vertex  0.000000e+00  6.069615e+01 -4.019238e-01
      vertex -2.214416e-01  6.069615e+01 -2.933013e+00
    endloop
  endfacet
  facet normal  9.958841e-01 -2.495103e-02 -8.713400e-02
    outer loop
      vertex -2.121544e-01  5.998164e+01 -2.529594e+00
      vertex -2.134084e-01  6.006218e+01 -2.566987e+00
      vertex  0.000000e+00  5.997261e+01 -1.022225e-01
    endloop
  endfacet
  facet normal  9.956649e-01 -3.190761e-02 -8.736783e-02
    outer loop
      vertex  0.000000e+00  5.997261e+01 -1.022225e-01
      vertex -2.134084e-01  6.006218e+01 -2.566987e+00
      vertex -2.193549e-01  6.038162e+01 -2.751419e+00
    endloop
  endfacet
  facet normal  9.957694e-01 -2.953601e-02 -8.701032e-02
    outer loop
      vertex  0.000000e+00  5.997261e+01 -1.022225e-01
      vertex -2.193549e-01  6.038162e+01 -2.751419e+00
      vertex  0.000000e+00  6.034420e+01 -2.283614e-01
    endloop
  endfacet
  facet normal  9.952329e-01 -4.372731e-02 -8.717414e-02
    outer loop
      vertex  0.000000e+00  6.034420e+01 -2.283614e-01
      vertex -2.193549e-01  6.038162e+01 -2.751419e+00
      vertex -2.214416e-01  6.069615e+01 -2.933013e+00
    endloop
  endfacet
  facet normal  9.952757e-01 -4.294102e-02 -8.707535e-02
    outer loop
      vertex  0.000000e+00  6.034420e+01 -2.283614e-01
      vertex -2.214416e-01  6.069615e+01 -2.933013e+00
      vertex  0.000000e+00  6.069615e+01 -4.019238e-01
    endloop
  endfacet
  facet normal  9.959645e-01 -1.964939e-02 -8.757054e-02
    outer loop
      vertex -2.131286e-01  5.981218e+01 -2.500000e+00
      vertex -2.120902e-01  5.989748e+01 -2.507331e+00
      vertex  0.000000e+00  5.958773e+01 -2.566542e-02
    endloop
  endfacet
  facet normal  9.958736e-01 -2.249753e-02 -8.791824e-02
    outer loop
      vertex  0.000000e+00  5.958773e+01 -2.566542e-02
      vertex -2.120902e-01  5.989748e+01 -2.507331e+00
      vertex -2.121544e-01  5.998164e+01 -2.529594e+00
    endloop
  endfacet
  facet normal  9.960471e-01 -1.732907e-02 -8.711988e-02
    outer loop
      vertex  0.000000e+00  5.958773e+01 -2.566542e-02
      vertex -2.121544e-01  5.998164e+01 -2.529594e+00
      vertex  0.000000e+00  5.997261e+01 -1.022225e-01
    endloop
  endfacet
  facet normal  9.961119e-01 -1.362387e-02 -8.703666e-02
    outer loop
      vertex -2.131286e-01  5.981218e+01 -2.500000e+00
      vertex  0.000000e+00  5.958773e+01 -2.566542e-02
      vertex -2.173186e-01  5.950583e+01 -2.500000e+00
    endloop
  endfacet
  facet normal  9.961653e-01 -5.722187e-03 -8.730290e-02
    outer loop
      vertex -2.173186e-01  5.950583e+01 -2.500000e+00
      vertex  0.000000e+00  5.958773e+01 -2.566542e-02
      vertex  0.000000e+00  5.919615e+01  0.000000e+00
    endloop
  endfacet
  facet normal  9.961845e-01 -4.513463e-03 -8.715485e-02
    outer loop
      vertex -2.173186e-01  5.950583e+01 -2.500000e+00
      vertex  0.000000e+00  5.919615e+01  0.000000e+00
      vertex -2.187217e-01  5.919615e+01 -2.500000e+00
    endloop
  endfacet
  facet normal -9.949359e-01 -5.025576e-02 -8.704552e-02
    outer loop
      vertex  2.500000e+01  7.299038e+01 -7.500000e+00
      vertex  2.522144e+01  6.860641e+01 -7.500000e+00
      vertex  2.500000e+01  6.069615e+01 -4.019238e-01
    endloop
  endfacet
  facet normal -9.949359e-01 -5.025573e-02 -8.704549e-02
    outer loop
      vertex  2.500000e+01  6.069615e+01 -4.019238e-01
      vertex  2.522144e+01  6.860641e+01 -7.500000e+00
      vertex  2.522144e+01  6.069615e+01 -2.933013e+00
    endloop
  endfacet
  facet normal -9.959641e-01 -1.966219e-02 -8.757184e-02
    outer loop
      vertex  2.500000e+01  5.958773e+01 -2.566542e-02
      vertex  2.521209e+01  5.989748e+01 -2.507331e+00
      vertex  2.521313e+01  5.981218e+01 -2.500000e+00
    endloop
  endfacet
  facet normal -9.961118e-01 -1.362540e-02 -8.703697e-02
    outer loop
      vertex  2.521313e+01  5.981218e+01 -2.500000e+00
      vertex  2.521732e+01  5.950583e+01 -2.500000e+00
      vertex  2.500000e+01  5.958773e+01 -2.566542e-02
    endloop
  endfacet
  facet normal -9.961680e-01 -4.509603e-03 -8.734365e-02
    outer loop
      vertex  2.500000e+01  5.958773e+01 -2.566542e-02
      vertex  2.521732e+01  5.950583e+01 -2.500000e+00
      vertex  2.521872e+01  5.919615e+01 -2.500000e+00
    endloop
  endfacet
  facet normal -9.961784e-01 -5.712438e-03 -8.715421e-02
    outer loop
      vertex  2.500000e+01  5.958773e+01 -2.566542e-02
      vertex  2.521872e+01  5.919615e+01 -2.500000e+00
      vertex  2.500000e+01  5.919615e+01  0.000000e+00
    endloop
  endfacet
  facet normal -9.957001e-01 -3.171384e-02 -8.703651e-02
    outer loop
      vertex  2.521935e+01  6.038162e+01 -2.751419e+00
      vertex  2.521341e+01  6.006218e+01 -2.566987e+00
      vertex  2.500000e+01  6.034420e+01 -2.283614e-01
    endloop
  endfacet
  facet normal -9.958153e-01 -2.528167e-02 -8.782270e-02
    outer loop
      vertex  2.500000e+01  6.034420e+01 -2.283614e-01
      vertex  2.521341e+01  6.006218e+01 -2.566987e+00
      vertex  2.521215e+01  5.998164e+01 -2.529594e+00
    endloop
  endfacet
  facet normal -9.957568e-01 -2.958007e-02 -8.714008e-02
    outer loop
      vertex  2.500000e+01  6.034420e+01 -2.283614e-01
      vertex  2.521215e+01  5.998164e+01 -2.529594e+00
      vertex  2.500000e+01  5.997261e+01 -1.022225e-01
    endloop
  endfacet
  facet normal -9.959478e-01 -2.228173e-02 -8.712962e-02
    outer loop
      vertex  2.500000e+01  5.997261e+01 -1.022225e-01
      vertex  2.521215e+01  5.998164e+01 -2.529594e+00
      vertex  2.521209e+01  5.989748e+01 -2.507331e+00
    endloop
  endfacet
  facet normal -9.960316e-01 -1.736312e-02 -8.729065e-02
    outer loop
      vertex  2.500000e+01  5.997261e+01 -1.022225e-01
      vertex  2.521209e+01  5.989748e+01 -2.507331e+00
      vertex  2.500000e+01  5.958773e+01 -2.566542e-02
    endloop
  endfacet
  facet normal -9.952329e-01 -4.372746e-02 -8.717404e-02
    outer loop
      vertex  2.521935e+01  6.038162e+01 -2.751419e+00
      vertex  2.500000e+01  6.034420e+01 -2.283614e-01
      vertex  2.522144e+01  6.069615e+01 -2.933013e+00
    endloop
  endfacet
  facet normal -9.952757e-01 -4.294102e-02 -8.707523e-02
    outer loop
      vertex  2.522144e+01  6.069615e+01 -2.933013e+00
      vertex  2.500000e+01  6.034420e+01 -2.283614e-01
      vertex  2.500000e+01  6.069615e+01 -4.019238e-01
    endloop
  endfacet
  facet normal  -0.000000e+00  0.000000e+00  1.000000e+00
    outer loop
      vertex  2.500000e+01  7.299038e+01 -7.500000e+00
      vertex  1.776357e-15  7.299038e+01 -7.500000e+00
      vertex  2.522144e+01  6.860641e+01 -7.500000e+00
    endloop
  endfacet
  facet normal  0.000000e+00  0.000000e+00  1.000000e+00
    outer loop
      vertex  2.522144e+01  6.860641e+01 -7.500000e+00
      vertex  1.776357e-15  7.299038e+01 -7.500000e+00
      vertex -2.214416e-01  6.860641e+01 -7.500000e+00
    endloop
  endfacet
  facet normal  0.000000e+00  0.000000e+00  1.000000e+00
    outer loop
      vertex -2.173186e-01  5.950583e+01 -2.500000e+00
      vertex  2.521313e+01  5.981218e+01 -2.500000e+00
      vertex -2.131286e-01  5.981218e+01 -2.500000e+00
    endloop
  endfacet
  facet normal  0.000000e+00  0.000000e+00  1.000000e+00
    outer loop
      vertex  2.521313e+01  5.981218e+01 -2.500000e+00
      vertex -2.173186e-01  5.950583e+01 -2.500000e+00
      vertex  2.521732e+01  5.950583e+01 -2.500000e+00
    endloop
  endfacet
  facet normal  0.000000e+00  0.000000e+00  1.000000e+00
    outer loop
      vertex  2.521732e+01  5.950583e+01 -2.500000e+00
      vertex -2.173186e-01  5.950583e+01 -2.500000e+00
      vertex -2.187217e-01  5.919615e+01 -2.500000e+00
    endloop
  endfacet
  facet normal  0.000000e+00  0.000000e+00  9.999999e-01
    outer loop
      vertex  2.521732e+01  5.950583e+01 -2.500000e+00
      vertex -2.187217e-01  5.919615e+01 -2.500000e+00
      vertex  2.521872e+01  5.919615e+01 -2.500000e+00
    endloop
  endfacet
  facet normal  0.000000e+00  0.000000e+00  1.000000e+00
    outer loop
      vertex  2.521872e+01  5.919615e+01 -2.500000e+00
      vertex -2.187217e-01  5.919615e+01 -2.500000e+00
      vertex -2.190000e-01  4.081218e+01 -2.500000e+00
    endloop
  endfacet
  facet normal  0.000000e+00  0.000000e+00  1.000000e+00
    outer loop
      vertex  2.521872e+01  5.919615e+01 -2.500000e+00
      vertex -2.190000e-01  4.081218e+01 -2.500000e+00
      vertex  2.521900e+01  4.081218e+01 -2.500000e+00
    endloop
  endfacet
  facet normal  2.571498e-07  5.000000e-01  8.660254e-01
    outer loop
      vertex  2.521935e+01  6.038162e+01 -2.751419e+00
      vertex  2.522144e+01  6.069615e+01 -2.933013e+00
      vertex  2.299997e+01  6.254469e+01 -4.000268e+00
    endloop
  endfacet
  facet normal  0.000000e+00  5.000029e-01  8.660238e-01
    outer loop
      vertex -2.134084e-01  6.006218e+01 -2.566987e+00
      vertex  2.521341e+01  6.006218e+01 -2.566987e+00
      vertex  2.521935e+01  6.038162e+01 -2.751419e+00
    endloop
  endfacet
  facet normal  5.095046e-08  4.999999e-01  8.660255e-01
    outer loop
      vertex -2.134084e-01  6.006218e+01 -2.566987e+00
      vertex  2.521935e+01  6.038162e+01 -2.751419e+00
      vertex  2.299997e+01  6.254469e+01 -4.000268e+00
    endloop
  endfacet
  facet normal  0.000000e+00  5.000003e-01  8.660253e-01
    outer loop
      vertex -2.134084e-01  6.006218e+01 -2.566987e+00
      vertex  2.299997e+01  6.254469e+01 -4.000268e+00
      vertex  1.700003e+01  6.254469e+01 -4.000268e+00
    endloop
  endfacet
  facet normal  0.000000e+00  5.000002e-01  8.660253e-01
    outer loop
      vertex -2.134084e-01  6.006218e+01 -2.566987e+00
      vertex  1.700003e+01  6.254469e+01 -4.000268e+00
      vertex  7.999971e+00  6.254469e+01 -4.000268e+00
    endloop
  endfacet
  facet normal  0.000000e+00  5.000003e-01  8.660253e-01
    outer loop
      vertex -2.134084e-01  6.006218e+01 -2.566987e+00
      vertex  7.999971e+00  6.254469e+01 -4.000268e+00
      vertex  2.000028e+00  6.254469e+01 -4.000268e+00
    endloop
  endfacet
  facet normal -4.004641e-06  5.000029e-01  8.660237e-01
    outer loop
      vertex -2.134084e-01  6.006218e+01 -2.566987e+00
      vertex  2.000028e+00  6.254469e+01 -4.000268e+00
      vertex -2.193549e-01  6.038162e+01 -2.751419e+00
    endloop
  endfacet
  facet normal  -0.000000e+00  5.000006e-01  8.660250e-01
    outer loop
      vertex  2.522144e+01  6.860641e+01 -7.500000e+00
      vertex -2.214416e-01  6.860641e+01 -7.500000e+00
      vertex  2.000000e+00  6.763126e+01 -6.937000e+00
    endloop
  endfacet
  facet normal  -0.000000e+00  5.000005e-01  8.660250e-01
    outer loop
      vertex  2.522144e+01  6.860641e+01 -7.500000e+00
      vertex  2.000000e+00  6.763126e+01 -6.937000e+00
      vertex  2.542000e+00  6.763126e+01 -6.937000e+00
    endloop
  endfacet
  facet normal  -0.000000e+00  5.000006e-01  8.660251e-01
    outer loop
      vertex  2.522144e+01  6.860641e+01 -7.500000e+00
      vertex  2.542000e+00  6.763126e+01 -6.937000e+00
      vertex  7.458000e+00  6.763126e+01 -6.937000e+00
    endloop
  endfacet
  facet normal  -0.000000e+00  5.000006e-01  8.660250e-01
    outer loop
      vertex  2.522144e+01  6.860641e+01 -7.500000e+00
      vertex  7.458000e+00  6.763126e+01 -6.937000e+00
      vertex  8.000000e+00  6.763126e+01 -6.937000e+00
    endloop
  endfacet
  facet normal  -0.000000e+00  5.000005e-01  8.660250e-01
    outer loop
      vertex  2.522144e+01  6.860641e+01 -7.500000e+00
      vertex  8.000000e+00  6.763126e+01 -6.937000e+00
      vertex  1.700000e+01  6.763126e+01 -6.937000e+00
    endloop
  endfacet
  facet normal  -0.000000e+00  5.000006e-01  8.660250e-01
    outer loop
      vertex  2.522144e+01  6.860641e+01 -7.500000e+00
      vertex  1.700000e+01  6.763126e+01 -6.937000e+00
      vertex  1.754200e+01  6.763126e+01 -6.937000e+00
    endloop
  endfacet
  facet normal  -0.000000e+00  5.000006e-01  8.660251e-01
    outer loop
      vertex  2.522144e+01  6.860641e+01 -7.500000e+00
      vertex  1.754200e+01  6.763126e+01 -6.937000e+00
      vertex  2.245800e+01  6.763126e+01 -6.937000e+00
    endloop
  endfacet
  facet normal  -0.000000e+00  5.000006e-01  8.660250e-01
    outer loop
      vertex  2.522144e+01  6.860641e+01 -7.500000e+00
      vertex  2.245800e+01  6.763126e+01 -6.937000e+00
      vertex  2.300000e+01  6.763126e+01 -6.937000e+00
    endloop
  endfacet
  facet normal  4.385540e-07  4.999998e-01  8.660254e-01
    outer loop
      vertex  2.522144e+01  6.860641e+01 -7.500000e+00
      vertex  2.300000e+01  6.763126e+01 -6.937000e+00
      vertex  2.299997e+01  6.254469e+01 -4.000268e+00
    endloop
  endfacet
  facet normal  1.410006e-07  4.999999e-01  8.660255e-01
    outer loop
      vertex  2.522144e+01  6.860641e+01 -7.500000e+00
      vertex  2.299997e+01  6.254469e+01 -4.000268e+00
      vertex  2.522144e+01  6.069615e+01 -2.933013e+00
    endloop
  endfacet
  facet normal  0.000000e+00  4.999997e-01  8.660256e-01
    outer loop
      vertex  2.541974e+00  6.301353e+01 -4.270950e+00
      vertex  7.411442e+00  6.301353e+01 -4.270950e+00
      vertex  2.542000e+00  6.763126e+01 -6.937000e+00
    endloop
  endfacet
  facet normal  -0.000000e+00  4.999997e-01  8.660255e-01
    outer loop
      vertex  2.542000e+00  6.763126e+01 -6.937000e+00
      vertex  7.411442e+00  6.301353e+01 -4.270950e+00
      vertex  7.458000e+00  6.763126e+01 -6.937000e+00
    endloop
  endfacet
  facet normal -2.938855e-07  5.000001e-01  8.660254e-01
    outer loop
      vertex -2.193549e-01  6.038162e+01 -2.751419e+00
      vertex  2.000028e+00  6.254469e+01 -4.000268e+00
      vertex -2.214416e-01  6.069615e+01 -2.933013e+00
    endloop
  endfacet
  facet normal -1.096363e-07  4.999999e-01  8.660254e-01
    outer loop
      vertex -2.214416e-01  6.069615e+01 -2.933013e+00
      vertex  2.000028e+00  6.254469e+01 -4.000268e+00
      vertex  2.000000e+00  6.763126e+01 -6.937000e+00
    endloop
  endfacet
  facet normal -3.760065e-07  4.999999e-01  8.660254e-01
    outer loop
      vertex -2.214416e-01  6.069615e+01 -2.933013e+00
      vertex  2.000000e+00  6.763126e+01 -6.937000e+00
      vertex -2.214416e-01  6.860641e+01 -7.500000e+00
    endloop
  endfacet
  facet normal  0.000000e+00  4.999999e-01  8.660255e-01
    outer loop
      vertex  1.700003e+01  6.254469e+01 -4.000268e+00
      vertex  1.700000e+01  6.763126e+01 -6.937000e+00
      vertex  7.999971e+00  6.254469e+01 -4.000268e+00
    endloop
  endfacet
  facet normal  0.000000e+00  4.999999e-01  8.660255e-01
    outer loop
      vertex  7.999971e+00  6.254469e+01 -4.000268e+00
      vertex  1.700000e+01  6.763126e+01 -6.937000e+00
      vertex  8.000000e+00  6.763126e+01 -6.937000e+00
    endloop
  endfacet
  facet normal  0.000000e+00  4.999997e-01  8.660256e-01
    outer loop
      vertex  2.245802e+01  6.301353e+01 -4.270950e+00
      vertex  2.245800e+01  6.763126e+01 -6.937000e+00
      vertex  1.758856e+01  6.301353e+01 -4.270950e+00
    endloop
  endfacet
  facet normal  0.000000e+00  4.999997e-01  8.660255e-01
    outer loop
      vertex  1.758856e+01  6.301353e+01 -4.270950e+00
      vertex  2.245800e+01  6.763126e+01 -6.937000e+00
      vertex  1.754200e+01  6.763126e+01 -6.937000e+00
    endloop
  endfacet
  facet normal  4.380547e-05 -2.142147e-05  9.999999e-01
    outer loop
      vertex  2.521900e+01  2.072818e+01 -2.500000e+00
      vertex  1.497568e+01 -2.187217e-01 -2.500000e+00
      vertex  2.521876e+01 -2.187609e-01 -2.500449e+00
    endloop
  endfacet
  facet normal  0.000000e+00  0.000000e+00  1.000000e+00
    outer loop
      vertex  1.497568e+01 -2.187217e-01 -2.500000e+00
      vertex  2.521900e+01  2.072818e+01 -2.500000e+00
      vertex  1.497568e+01  2.501278e+00 -2.500000e+00
    endloop
  endfacet
  facet normal  0.000000e+00  -0.000000e+00  1.000000e+00
    outer loop
      vertex  1.497568e+01  2.501278e+00 -2.500000e+00
      vertex  2.521900e+01  2.072818e+01 -2.500000e+00
      vertex -2.190000e-01  2.072818e+01 -2.500000e+00
    endloop
  endfacet
  facet normal  0.000000e+00  0.000000e+00  1.000000e+00
    outer loop
      vertex  1.497568e+01  2.501278e+00 -2.500000e+00
      vertex -2.190000e-01  2.072818e+01 -2.500000e+00
      vertex  1.002432e+01  2.501278e+00 -2.500000e+00
    endloop
  endfacet
  facet normal -3.811712e-05 -2.142141e-05  1.000000e+00
    outer loop
      vertex  1.002432e+01  2.501278e+00 -2.500000e+00
      vertex -2.190000e-01  2.072818e+01 -2.500000e+00
      vertex -2.187609e-01 -2.187609e-01 -2.500449e+00
    endloop
  endfacet
  facet normal -4.380556e-05  0.000000e+00  1.000000e+00
    outer loop
      vertex  1.002432e+01  2.501278e+00 -2.500000e+00
      vertex -2.187609e-01 -2.187609e-01 -2.500449e+00
      vertex  1.002432e+01 -2.187217e-01 -2.500000e+00
    endloop
  endfacet
  facet normal  0.000000e+00  0.000000e+00  9.999999e-01
    outer loop
      vertex  2.521900e+01  2.127018e+01 -2.500000e+00
      vertex  2.521900e+01  4.027018e+01 -2.500000e+00
      vertex -2.190000e-01  2.127018e+01 -2.500000e+00
    endloop
  endfacet
  facet normal  0.000000e+00  0.000000e+00  9.999999e-01
    outer loop
      vertex -2.190000e-01  2.127018e+01 -2.500000e+00
      vertex  2.521900e+01  4.027018e+01 -2.500000e+00
      vertex -2.190000e-01  4.027018e+01 -2.500000e+00
    endloop
  endfacet
  facet normal -1.000000e+00  0.000000e+00  0.000000e+00
    outer loop
      vertex  2.521900e+01  2.126145e+01 -3.500000e+00
      vertex  2.521900e+01  2.073690e+01 -3.500000e+00
      vertex  2.521900e+01  2.127015e+01 -2.503181e+00
    endloop
  endfacet
  facet normal -1.000000e+00  -0.000000e+00  0.000000e+00
    outer loop
      vertex  2.521900e+01  2.127015e+01 -2.503181e+00
      vertex  2.521900e+01  2.073690e+01 -3.500000e+00
      vertex  2.521900e+01  2.072820e+01 -2.503181e+00
    endloop
  endfacet
  facet normal -9.999999e-01  0.000000e+00  0.000000e+00
    outer loop
      vertex  2.521900e+01  2.127015e+01 -2.503181e+00
      vertex  2.521900e+01  2.072820e+01 -2.503181e+00
      vertex  2.521900e+01  2.127018e+01 -2.500000e+00
    endloop
  endfacet
  facet normal -1.000000e+00  -0.000000e+00  0.000000e+00
    outer loop
      vertex  2.521900e+01  2.127018e+01 -2.500000e+00
      vertex  2.521900e+01  2.072820e+01 -2.503181e+00
      vertex  2.521900e+01  2.072818e+01 -2.500000e+00
    endloop
  endfacet
  facet normal  1.000000e+00  0.000000e+00  0.000000e+00
    outer loop
      vertex -2.190000e-01  2.126145e+01 -3.500000e+00
      vertex -2.190000e-01  2.127015e+01 -2.503181e+00
      vertex -2.190000e-01  2.073690e+01 -3.500000e+00
    endloop
  endfacet
  facet normal  1.000000e+00  0.000000e+00  -0.000000e+00
    outer loop
      vertex -2.190000e-01  2.073690e+01 -3.500000e+00
      vertex -2.190000e-01  2.127015e+01 -2.503181e+00
      vertex -2.190000e-01  2.072820e+01 -2.503181e+00
    endloop
  endfacet
  facet normal  9.999999e-01  0.000000e+00  0.000000e+00
    outer loop
      vertex -2.190000e-01  2.127015e+01 -2.503181e+00
      vertex -2.190000e-01  2.127018e+01 -2.500000e+00
      vertex -2.190000e-01  2.072820e+01 -2.503181e+00
    endloop
  endfacet
  facet normal  9.999999e-01  0.000000e+00  -0.000000e+00
    outer loop
      vertex -2.190000e-01  2.072820e+01 -2.503181e+00
      vertex -2.190000e-01  2.127018e+01 -2.500000e+00
      vertex -2.190000e-01  2.072818e+01 -2.500000e+00
    endloop
  endfacet
  facet normal -1.000000e+00  0.000000e+00  0.000000e+00
    outer loop
      vertex  2.521900e+01  4.081215e+01 -2.503181e+00
      vertex  2.521900e+01  4.080345e+01 -3.500000e+00
      vertex  2.521900e+01  4.027021e+01 -2.503181e+00
    endloop
  endfacet
  facet normal -1.000000e+00  0.000000e+00  0.000000e+00
    outer loop
      vertex  2.521900e+01  4.027021e+01 -2.503181e+00
      vertex  2.521900e+01  4.080345e+01 -3.500000e+00
      vertex  2.521900e+01  4.027890e+01 -3.500000e+00
    endloop
  endfacet
  facet normal -1.000000e+00  0.000000e+00  0.000000e+00
    outer loop
      vertex  2.521900e+01  4.081218e+01 -2.500000e+00
      vertex  2.521900e+01  4.081215e+01 -2.503181e+00
      vertex  2.521900e+01  4.027018e+01 -2.500000e+00
    endloop
  endfacet
  facet normal -1.000000e+00  0.000000e+00  0.000000e+00
    outer loop
      vertex  2.521900e+01  4.027018e+01 -2.500000e+00
      vertex  2.521900e+01  4.081215e+01 -2.503181e+00
      vertex  2.521900e+01  4.027021e+01 -2.503181e+00
    endloop
  endfacet
  facet normal  1.000000e+00  0.000000e+00  0.000000e+00
    outer loop
      vertex -2.190000e-01  4.080345e+01 -3.500000e+00
      vertex -2.190000e-01  4.081215e+01 -2.503181e+00
      vertex -2.190000e-01  4.027890e+01 -3.500000e+00
    endloop
  endfacet
  facet normal  1.000000e+00  0.000000e+00  -0.000000e+00
    outer loop
      vertex -2.190000e-01  4.027890e+01 -3.500000e+00
      vertex -2.190000e-01  4.081215e+01 -2.503181e+00
      vertex -2.190000e-01  4.027021e+01 -2.503181e+00
    endloop
  endfacet
  facet normal  1.000000e+00  0.000000e+00  0.000000e+00
    outer loop
      vertex -2.190000e-01  4.081215e+01 -2.503181e+00
      vertex -2.190000e-01  4.081218e+01 -2.500000e+00
      vertex -2.190000e-01  4.027021e+01 -2.503181e+00
    endloop
  endfacet
  facet normal  1.000000e+00  0.000000e+00  -0.000000e+00
    outer loop
      vertex -2.190000e-01  4.027021e+01 -2.503181e+00
      vertex -2.190000e-01  4.081218e+01 -2.500000e+00
      vertex -2.190000e-01  4.027018e+01 -2.500000e+00
    endloop
  endfacet
  facet normal -6.644856e-10  9.961947e-01 -8.715574e-02
    outer loop
      vertex  2.500000e+01  0.000000e+00  0.000000e+00
      vertex  2.521876e+01 -2.187609e-01 -2.500449e+00
      vertex  1.497568e+01 -2.187217e-01 -2.500000e+00
    endloop
  endfacet
  facet normal  0.000000e+00  9.961947e-01 -8.715574e-02
    outer loop
      vertex  1.497568e+01 -2.187217e-01 -2.500000e+00
      vertex  1.002432e+01 -2.187217e-01 -2.500000e+00
      vertex  2.500000e+01  0.000000e+00  0.000000e+00
    endloop
  endfacet
  facet normal  0.000000e+00  9.961947e-01 -8.715574e-02
    outer loop
      vertex  2.500000e+01  0.000000e+00  0.000000e+00
      vertex  1.002432e+01 -2.187217e-01 -2.500000e+00
      vertex -2.187609e-01 -2.187609e-01 -2.500449e+00
    endloop
  endfacet
  facet normal  0.000000e+00  9.961947e-01 -8.715574e-02
    outer loop
      vertex  2.500000e+01  0.000000e+00  0.000000e+00
      vertex -2.187609e-01 -2.187609e-01 -2.500449e+00
      vertex  0.000000e+00  0.000000e+00  0.000000e+00
    endloop
  endfacet
  facet normal  0.000000e+00 -9.999619e-01  8.728927e-03
    outer loop
      vertex  2.521900e+01  4.080345e+01 -3.500000e+00
      vertex  2.013338e+01  4.080490e+01 -3.333503e+00
      vertex  2.041700e+01  4.080345e+01 -3.500000e+00
    endloop
  endfacet
  facet normal -5.073328e-07 -9.999620e-01  8.713432e-03
    outer loop
      vertex  2.521900e+01  4.080345e+01 -3.500000e+00
      vertex  1.968905e+01  4.080652e+01 -3.147910e+00
      vertex  2.013338e+01  4.080490e+01 -3.333503e+00
    endloop
  endfacet
  facet normal  0.000000e+00 -9.999619e-01  8.724937e-03
    outer loop
      vertex -2.190000e-01  4.081215e+01 -2.503181e+00
      vertex -2.190000e-01  4.080345e+01 -3.500000e+00
      vertex  4.583000e+00  4.080345e+01 -3.500000e+00
    endloop
  endfacet
  facet normal  0.000000e+00 -9.999539e-01  9.591885e-03
    outer loop
      vertex  2.521900e+01  4.081215e+01 -2.503181e+00
      vertex  2.521900e+01  4.081218e+01 -2.500000e+00
      vertex -2.190000e-01  4.081218e+01 -2.500000e+00
    endloop
  endfacet
  facet normal -1.087265e-07 -9.999619e-01  8.722615e-03
    outer loop
      vertex  2.521900e+01  4.081215e+01 -2.503181e+00
      vertex -2.190000e-01  4.081218e+01 -2.500000e+00
      vertex  1.874054e+01  4.080782e+01 -3.000055e+00
    endloop
  endfacet
  facet normal -1.136789e-06 -9.999619e-01  8.736019e-03
    outer loop
      vertex  2.521900e+01  4.081215e+01 -2.503181e+00
      vertex  1.874054e+01  4.080782e+01 -3.000055e+00
      vertex  1.922075e+01  4.080750e+01 -3.035797e+00
    endloop
  endfacet
  facet normal -1.359880e-06 -9.999619e-01  8.738533e-03
    outer loop
      vertex  2.521900e+01  4.081215e+01 -2.503181e+00
      vertex  1.922075e+01  4.080750e+01 -3.035797e+00
      vertex  1.968905e+01  4.080652e+01 -3.147910e+00
    endloop
  endfacet
  facet normal  2.252043e-07 -9.999620e-01  8.724936e-03
    outer loop
      vertex  2.521900e+01  4.081215e+01 -2.503181e+00
      vertex  1.968905e+01  4.080652e+01 -3.147910e+00
      vertex  2.521900e+01  4.080345e+01 -3.500000e+00
    endloop
  endfacet
  facet normal -4.463783e-07 -9.999619e-01  8.718939e-03
    outer loop
      vertex  1.710038e+01  4.080345e+01 -3.500000e+00
      vertex  6.223162e+00  4.080782e+01 -3.000055e+00
      vertex  6.704062e+00  4.080750e+01 -3.035905e+00
    endloop
  endfacet
  facet normal  1.304281e-06 -9.999616e-01  8.758156e-03
    outer loop
      vertex  1.710038e+01  4.080345e+01 -3.500000e+00
      vertex  6.704062e+00  4.080750e+01 -3.035905e+00
      vertex  7.173009e+00  4.080652e+01 -3.148345e+00
    endloop
  endfacet
  facet normal -4.235879e-07 -9.999621e-01  8.709380e-03
    outer loop
      vertex  1.710038e+01  4.080345e+01 -3.500000e+00
      vertex  7.173009e+00  4.080652e+01 -3.148345e+00
      vertex  7.617877e+00  4.080490e+01 -3.334466e+00
    endloop
  endfacet
  facet normal  0.000000e+00 -9.999619e-01  8.733643e-03
    outer loop
      vertex  1.710038e+01  4.080345e+01 -3.500000e+00
      vertex  7.617877e+00  4.080490e+01 -3.334466e+00
      vertex  7.899625e+00  4.080345e+01 -3.500000e+00
    endloop
  endfacet
  facet normal  1.799790e-04 -9.999540e-01  9.591885e-03
    outer loop
      vertex -2.190000e-01  4.081218e+01 -2.500000e+00
      vertex -2.190000e-01  4.081215e+01 -2.503181e+00
      vertex  4.583000e+00  4.080345e+01 -3.500000e+00
    endloop
  endfacet
  facet normal  1.874277e-07 -9.999619e-01  8.728595e-03
    outer loop
      vertex -2.190000e-01  4.081218e+01 -2.500000e+00
      vertex  4.583000e+00  4.080345e+01 -3.500000e+00
      vertex  4.961380e+00  4.080531e+01 -3.286743e+00
    endloop
  endfacet
  facet normal -2.123646e-06 -9.999620e-01  8.713379e-03
    outer loop
      vertex -2.190000e-01  4.081218e+01 -2.500000e+00
      vertex  4.961380e+00  4.080531e+01 -3.286743e+00
      vertex  5.366601e+00  4.080667e+01 -3.130357e+00
    endloop
  endfacet
  facet normal  2.077868e-06 -9.999617e-01  8.750606e-03
    outer loop
      vertex -2.190000e-01  4.081218e+01 -2.500000e+00
      vertex  5.366601e+00  4.080667e+01 -3.130357e+00
      vertex  5.790157e+00  4.080752e+01 -3.034119e+00
    endloop
  endfacet
  facet normal  3.014571e-07 -9.999619e-01  8.730622e-03
    outer loop
      vertex -2.190000e-01  4.081218e+01 -2.500000e+00
      vertex  5.790157e+00  4.080752e+01 -3.034119e+00
      vertex  6.223162e+00  4.080782e+01 -3.000055e+00
    endloop
  endfacet
  facet normal -2.157704e-07 -9.999620e-01  8.723958e-03
    outer loop
      vertex -2.190000e-01  4.081218e+01 -2.500000e+00
      vertex  6.223162e+00  4.080782e+01 -3.000055e+00
      vertex  1.710038e+01  4.080345e+01 -3.500000e+00
    endloop
  endfacet
  facet normal  6.455438e-08 -9.999620e-01  8.728814e-03
    outer loop
      vertex -2.190000e-01  4.081218e+01 -2.500000e+00
      vertex  1.710038e+01  4.080345e+01 -3.500000e+00
      vertex  1.747876e+01  4.080531e+01 -3.286743e+00
    endloop
  endfacet
  facet normal -7.767651e-07 -9.999621e-01  8.709889e-03
    outer loop
      vertex -2.190000e-01  4.081218e+01 -2.500000e+00
      vertex  1.747876e+01  4.080531e+01 -3.286743e+00
      vertex  1.788398e+01  4.080667e+01 -3.130357e+00
    endloop
  endfacet
  facet normal  8.320421e-07 -9.999617e-01  8.756088e-03
    outer loop
      vertex -2.190000e-01  4.081218e+01 -2.500000e+00
      vertex  1.788398e+01  4.080667e+01 -3.130357e+00
      vertex  1.830753e+01  4.080752e+01 -3.034119e+00
    endloop
  endfacet
  facet normal  1.524023e-07 -9.999619e-01  8.732515e-03
    outer loop
      vertex -2.190000e-01  4.081218e+01 -2.500000e+00
      vertex  1.830753e+01  4.080752e+01 -3.034119e+00
      vertex  1.874054e+01  4.080782e+01 -3.000055e+00
    endloop
  endfacet
  facet normal  0.000000e+00  9.999619e-01  8.728927e-03
    outer loop
      vertex  2.041700e+01  4.027890e+01 -3.500000e+00
      vertex  2.013338e+01  4.027745e+01 -3.333503e+00
      vertex  2.521900e+01  4.027890e+01 -3.500000e+00
    endloop
  endfacet
  facet normal -5.073328e-07  9.999620e-01  8.713432e-03
    outer loop
      vertex  2.013338e+01  4.027745e+01 -3.333503e+00
      vertex  1.968905e+01  4.027583e+01 -3.147910e+00
      vertex  2.521900e+01  4.027890e+01 -3.500000e+00
    endloop
  endfacet
  facet normal  -0.000000e+00  9.999619e-01  8.724937e-03
    outer loop
      vertex  4.583000e+00  4.027890e+01 -3.500000e+00
      vertex -2.190000e-01  4.027890e+01 -3.500000e+00
      vertex -2.190000e-01  4.027021e+01 -2.503181e+00
    endloop
  endfacet
  facet normal  2.252465e-07  9.999620e-01  8.724937e-03
    outer loop
      vertex  2.521900e+01  4.027021e+01 -2.503181e+00
      vertex  2.521900e+01  4.027890e+01 -3.500000e+00
      vertex  1.968905e+01  4.027583e+01 -3.147910e+00
    endloop
  endfacet
  facet normal -1.359880e-06  9.999619e-01  8.738531e-03
    outer loop
      vertex  2.521900e+01  4.027021e+01 -2.503181e+00
      vertex  1.968905e+01  4.027583e+01 -3.147910e+00
      vertex  1.922075e+01  4.027485e+01 -3.035797e+00
    endloop
  endfacet
  facet normal -1.136789e-06  9.999619e-01  8.736019e-03
    outer loop
      vertex  2.521900e+01  4.027021e+01 -2.503181e+00
      vertex  1.922075e+01  4.027485e+01 -3.035797e+00
      vertex  1.874054e+01  4.027454e+01 -3.000055e+00
    endloop
  endfacet
  facet normal -1.087231e-07  9.999619e-01  8.722615e-03
    outer loop
      vertex  2.521900e+01  4.027021e+01 -2.503181e+00
      vertex  1.874054e+01  4.027454e+01 -3.000055e+00
      vertex -2.190000e-01  4.027018e+01 -2.500000e+00
    endloop
  endfacet
  facet normal  -0.000000e+00  9.999539e-01  9.591885e-03
    outer loop
      vertex  2.521900e+01  4.027021e+01 -2.503181e+00
      vertex -2.190000e-01  4.027018e+01 -2.500000e+00
      vertex  2.521900e+01  4.027018e+01 -2.500000e+00
    endloop
  endfacet
  facet normal  -0.000000e+00  9.999621e-01  8.710602e-03
    outer loop
      vertex  1.710038e+01  4.027890e+01 -3.500000e+00
      vertex  7.899625e+00  4.027890e+01 -3.500000e+00
      vertex  7.617877e+00  4.027746e+01 -3.334466e+00
    endloop
  endfacet
  facet normal  3.695553e-07  9.999619e-01  8.731770e-03
    outer loop
      vertex  1.710038e+01  4.027890e+01 -3.500000e+00
      vertex  7.617877e+00  4.027746e+01 -3.334466e+00
      vertex  7.173009e+00  4.027584e+01 -3.148345e+00
    endloop
  endfacet
  facet normal  1.304250e-06  9.999616e-01  8.758155e-03
    outer loop
      vertex  1.710038e+01  4.027890e+01 -3.500000e+00
      vertex  7.173009e+00  4.027584e+01 -3.148345e+00
      vertex  6.704062e+00  4.027485e+01 -3.035905e+00
    endloop
  endfacet
  facet normal -4.463784e-07  9.999620e-01  8.718941e-03
    outer loop
      vertex  1.710038e+01  4.027890e+01 -3.500000e+00
      vertex  6.704062e+00  4.027485e+01 -3.035905e+00
      vertex  6.223162e+00  4.027454e+01 -3.000055e+00
    endloop
  endfacet
  facet normal  1.523854e-07  9.999618e-01  8.732515e-03
    outer loop
      vertex -2.190000e-01  4.027018e+01 -2.500000e+00
      vertex  1.874054e+01  4.027454e+01 -3.000055e+00
      vertex  1.830753e+01  4.027484e+01 -3.034119e+00
    endloop
  endfacet
  facet normal  8.320566e-07  9.999617e-01  8.756087e-03
    outer loop
      vertex -2.190000e-01  4.027018e+01 -2.500000e+00
      vertex  1.830753e+01  4.027484e+01 -3.034119e+00
      vertex  1.788398e+01  4.027568e+01 -3.130357e+00
    endloop
  endfacet
  facet normal -7.767651e-07  9.999621e-01  8.709889e-03
    outer loop
      vertex -2.190000e-01  4.027018e+01 -2.500000e+00
      vertex  1.788398e+01  4.027568e+01 -3.130357e+00
      vertex  1.747876e+01  4.027704e+01 -3.286743e+00
    endloop
  endfacet
  facet normal  6.455437e-08  9.999620e-01  8.728813e-03
    outer loop
      vertex -2.190000e-01  4.027018e+01 -2.500000e+00
      vertex  1.747876e+01  4.027704e+01 -3.286743e+00
      vertex  1.710038e+01  4.027890e+01 -3.500000e+00
    endloop
  endfacet
  facet normal -2.157704e-07  9.999620e-01  8.723960e-03
    outer loop
      vertex -2.190000e-01  4.027018e+01 -2.500000e+00
      vertex  1.710038e+01  4.027890e+01 -3.500000e+00
      vertex  6.223162e+00  4.027454e+01 -3.000055e+00
    endloop
  endfacet
  facet normal  3.014238e-07  9.999619e-01  8.730621e-03
    outer loop
      vertex -2.190000e-01  4.027018e+01 -2.500000e+00
      vertex  6.223162e+00  4.027454e+01 -3.000055e+00
      vertex  5.790157e+00  4.027484e+01 -3.034119e+00
    endloop
  endfacet
  facet normal  2.077904e-06  9.999617e-01  8.750606e-03
    outer loop
      vertex -2.190000e-01  4.027018e+01 -2.500000e+00
      vertex  5.790157e+00  4.027484e+01 -3.034119e+00
      vertex  5.366601e+00  4.027568e+01 -3.130357e+00
    endloop
  endfacet
  facet normal -2.123646e-06  9.999620e-01  8.713379e-03
    outer loop
      vertex -2.190000e-01  4.027018e+01 -2.500000e+00
      vertex  5.366601e+00  4.027568e+01 -3.130357e+00
      vertex  4.961380e+00  4.027704e+01 -3.286743e+00
    endloop
  endfacet
  facet normal  1.874277e-07  9.999619e-01  8.728595e-03
    outer loop
      vertex -2.190000e-01  4.027018e+01 -2.500000e+00
      vertex  4.961380e+00  4.027704e+01 -3.286743e+00
      vertex  4.583000e+00  4.027890e+01 -3.500000e+00
    endloop
  endfacet
  facet normal  1.799482e-04  9.999539e-01  9.591871e-03
    outer loop
      vertex -2.190000e-01  4.027018e+01 -2.500000e+00
      vertex  4.583000e+00  4.027890e+01 -3.500000e+00
      vertex -2.190000e-01  4.027021e+01 -2.503181e+00
    endloop
  endfacet
  facet normal  0.000000e+00 -9.999620e-01  8.717022e-03
    outer loop
      vertex  2.521900e+01  2.126145e+01 -3.500000e+00
      vertex  2.013469e+01  2.126290e+01 -3.334150e+00
      vertex  2.041700e+01  2.126145e+01 -3.500000e+00
    endloop
  endfacet
  facet normal  5.353123e-07 -9.999619e-01  8.733431e-03
    outer loop
      vertex  2.521900e+01  2.126145e+01 -3.500000e+00
      vertex  1.968969e+01  2.126452e+01 -3.148057e+00
      vertex  2.013469e+01  2.126290e+01 -3.334150e+00
    endloop
  endfacet
  facet normal  0.000000e+00 -9.999619e-01  8.724937e-03
    outer loop
      vertex -2.190000e-01  2.127015e+01 -2.503181e+00
      vertex -2.190000e-01  2.126145e+01 -3.500000e+00
      vertex  4.583000e+00  2.126145e+01 -3.500000e+00
    endloop
  endfacet
  facet normal  0.000000e+00 -9.999596e-01  8.992443e-03
    outer loop
      vertex  2.521900e+01  2.127015e+01 -2.503181e+00
      vertex  2.521900e+01  2.127018e+01 -2.500000e+00
      vertex -2.190000e-01  2.127018e+01 -2.500000e+00
    endloop
  endfacet
  facet normal -3.360876e-08 -9.999619e-01  8.723738e-03
    outer loop
      vertex  2.521900e+01  2.127015e+01 -2.503181e+00
      vertex -2.190000e-01  2.127018e+01 -2.500000e+00
      vertex  1.873960e+01  2.126582e+01 -2.999935e+00
    endloop
  endfacet
  facet normal -1.016720e-06 -9.999619e-01  8.736561e-03
    outer loop
      vertex  2.521900e+01  2.127015e+01 -2.503181e+00
      vertex  1.873960e+01  2.126582e+01 -2.999935e+00
      vertex  1.922062e+01  2.126550e+01 -3.035682e+00
    endloop
  endfacet
  facet normal  8.077001e-08 -9.999619e-01  8.724198e-03
    outer loop
      vertex  2.521900e+01  2.127015e+01 -2.503181e+00
      vertex  1.922062e+01  2.126550e+01 -3.035682e+00
      vertex  1.968969e+01  2.126452e+01 -3.148057e+00
    endloop
  endfacet
  facet normal -5.364640e-09 -9.999619e-01  8.724937e-03
    outer loop
      vertex  2.521900e+01  2.127015e+01 -2.503181e+00
      vertex  1.968969e+01  2.126452e+01 -3.148057e+00
      vertex  2.521900e+01  2.126145e+01 -3.500000e+00
    endloop
  endfacet
  facet normal  2.854311e-06 -9.999613e-01  8.788644e-03
    outer loop
      vertex  1.710000e+01  2.126145e+01 -3.500000e+00
      vertex  6.222595e+00  2.126582e+01 -2.999935e+00
      vertex  6.703615e+00  2.126550e+01 -3.035682e+00
    endloop
  endfacet
  facet normal -4.828576e-08 -9.999620e-01  8.723660e-03
    outer loop
      vertex  1.710000e+01  2.126145e+01 -3.500000e+00
      vertex  6.703615e+00  2.126550e+01 -3.035682e+00
      vertex  7.172694e+00  2.126452e+01 -3.148057e+00
    endloop
  endfacet
  facet normal  2.761909e-07 -9.999619e-01  8.732811e-03
    outer loop
      vertex  1.710000e+01  2.126145e+01 -3.500000e+00
      vertex  7.172694e+00  2.126452e+01 -3.148057e+00
      vertex  7.617694e+00  2.126290e+01 -3.334150e+00
    endloop
  endfacet
  facet normal  0.000000e+00 -9.999620e-01  8.717021e-03
    outer loop
      vertex  1.710000e+01  2.126145e+01 -3.500000e+00
      vertex  7.617694e+00  2.126290e+01 -3.334150e+00
      vertex  7.900000e+00  2.126145e+01 -3.500000e+00
    endloop
  endfacet
  facet normal  5.553415e-05 -9.999596e-01  8.992443e-03
    outer loop
      vertex -2.190000e-01  2.127018e+01 -2.500000e+00
      vertex -2.190000e-01  2.127015e+01 -2.503181e+00
      vertex  4.583000e+00  2.126145e+01 -3.500000e+00
    endloop
  endfacet
  facet normal -7.090914e-07 -9.999619e-01  8.722383e-03
    outer loop
      vertex -2.190000e-01  2.127018e+01 -2.500000e+00
      vertex  4.583000e+00  2.126145e+01 -3.500000e+00
      vertex  4.961244e+00  2.126331e+01 -3.286771e+00
    endloop
  endfacet
  facet normal  5.104512e-07 -9.999619e-01  8.730412e-03
    outer loop
      vertex -2.190000e-01  2.127018e+01 -2.500000e+00
      vertex  4.961244e+00  2.126331e+01 -3.286771e+00
      vertex  5.366319e+00  2.126468e+01 -3.130375e+00
    endloop
  endfacet
  facet normal -7.710594e-07 -9.999620e-01  8.719059e-03
    outer loop
      vertex -2.190000e-01  2.127018e+01 -2.500000e+00
      vertex  5.366319e+00  2.126468e+01 -3.130375e+00
      vertex  5.789729e+00  2.126552e+01 -3.034089e+00
    endloop
  endfacet
  facet normal  1.664475e-06 -9.999618e-01  8.746456e-03
    outer loop
      vertex -2.190000e-01  2.127018e+01 -2.500000e+00
      vertex  5.789729e+00  2.126552e+01 -3.034089e+00
      vertex  6.222595e+00  2.126582e+01 -2.999935e+00
    endloop
  endfacet
  facet normal -1.748698e-07 -9.999620e-01  8.722757e-03
    outer loop
      vertex -2.190000e-01  2.127018e+01 -2.500000e+00
      vertex  6.222595e+00  2.126582e+01 -2.999935e+00
      vertex  1.710000e+01  2.126145e+01 -3.500000e+00
    endloop
  endfacet
  facet normal -2.442221e-07 -9.999619e-01  8.721557e-03
    outer loop
      vertex -2.190000e-01  2.127018e+01 -2.500000e+00
      vertex  1.710000e+01  2.126145e+01 -3.500000e+00
      vertex  1.747824e+01  2.126331e+01 -3.286771e+00
    endloop
  endfacet
  facet normal  1.866960e-07 -9.999619e-01  8.731250e-03
    outer loop
      vertex -2.190000e-01  2.127018e+01 -2.500000e+00
      vertex  1.747824e+01  2.126331e+01 -3.286771e+00
      vertex  1.788332e+01  2.126468e+01 -3.130375e+00
    endloop
  endfacet
  facet normal -3.087045e-07 -9.999620e-01  8.717027e-03
    outer loop
      vertex -2.190000e-01  2.127018e+01 -2.500000e+00
      vertex  1.788332e+01  2.126468e+01 -3.130375e+00
      vertex  1.830673e+01  2.126552e+01 -3.034089e+00
    endloop
  endfacet
  facet normal  8.408186e-07 -9.999617e-01  8.756896e-03
    outer loop
      vertex -2.190000e-01  2.127018e+01 -2.500000e+00
      vertex  1.830673e+01  2.126552e+01 -3.034089e+00
      vertex  1.873960e+01  2.126582e+01 -2.999935e+00
    endloop
  endfacet
  facet normal  0.000000e+00  9.999619e-01  8.728521e-03
    outer loop
      vertex  2.041700e+01  2.073690e+01 -3.500000e+00
      vertex  2.013469e+01  2.073546e+01 -3.334150e+00
      vertex  2.521900e+01  2.073690e+01 -3.500000e+00
    endloop
  endfacet
  facet normal -2.341950e-07  9.999619e-01  8.721343e-03
    outer loop
      vertex  2.013469e+01  2.073546e+01 -3.334150e+00
      vertex  1.968969e+01  2.073383e+01 -3.148057e+00
      vertex  2.521900e+01  2.073690e+01 -3.500000e+00
    endloop
  endfacet
  facet normal  -0.000000e+00  9.999619e-01  8.726850e-03
    outer loop
      vertex  4.583000e+00  2.073690e+01 -3.500000e+00
      vertex -2.190000e-01  2.073690e+01 -3.500000e+00
      vertex -2.190000e-01  2.072820e+01 -2.503181e+00
    endloop
  endfacet
  facet normal  1.164169e-07  9.999619e-01  8.726850e-03
    outer loop
      vertex  2.521900e+01  2.072820e+01 -2.503181e+00
      vertex  2.521900e+01  2.073690e+01 -3.500000e+00
      vertex  1.968969e+01  2.073383e+01 -3.148057e+00
    endloop
  endfacet
  facet normal  3.127475e-07  9.999619e-01  8.725166e-03
    outer loop
      vertex  2.521900e+01  2.072820e+01 -2.503181e+00
      vertex  1.968969e+01  2.073383e+01 -3.148057e+00
      vertex  1.922062e+01  2.073285e+01 -3.035682e+00
    endloop
  endfacet
  facet normal -8.718449e-07  9.999618e-01  8.738509e-03
    outer loop
      vertex  2.521900e+01  2.072820e+01 -2.503181e+00
      vertex  1.922062e+01  2.073285e+01 -3.035682e+00
      vertex  1.873960e+01  2.073254e+01 -2.999935e+00
    endloop
  endfacet
  facet normal  4.171908e-08  9.999619e-01  8.726595e-03
    outer loop
      vertex  2.521900e+01  2.072820e+01 -2.503181e+00
      vertex  1.873960e+01  2.073254e+01 -2.999935e+00
      vertex -2.190000e-01  2.072818e+01 -2.500000e+00
    endloop
  endfacet
  facet normal  -0.000000e+00  9.999648e-01  8.392990e-03
    outer loop
      vertex  2.521900e+01  2.072820e+01 -2.503181e+00
      vertex -2.190000e-01  2.072818e+01 -2.500000e+00
      vertex  2.521900e+01  2.072818e+01 -2.500000e+00
    endloop
  endfacet
  facet normal  -0.000000e+00  9.999619e-01  8.728521e-03
    outer loop
      vertex  1.710000e+01  2.073690e+01 -3.500000e+00
      vertex  7.900000e+00  2.073690e+01 -3.500000e+00
      vertex  7.617694e+00  2.073546e+01 -3.334150e+00
    endloop
  endfacet
  facet normal -1.208314e-07  9.999620e-01  8.721613e-03
    outer loop
      vertex  1.710000e+01  2.073690e+01 -3.500000e+00
      vertex  7.617694e+00  2.073546e+01 -3.334150e+00
      vertex  7.172694e+00  2.073383e+01 -3.148057e+00
    endloop
  endfacet
  facet normal -4.828575e-08  9.999620e-01  8.723659e-03
    outer loop
      vertex  1.710000e+01  2.073690e+01 -3.500000e+00
      vertex  7.172694e+00  2.073383e+01 -3.148057e+00
      vertex  6.703615e+00  2.073285e+01 -3.035682e+00
    endloop
  endfacet
  facet normal  2.854311e-06  9.999613e-01  8.788646e-03
    outer loop
      vertex  1.710000e+01  2.073690e+01 -3.500000e+00
      vertex  6.703615e+00  2.073285e+01 -3.035682e+00
      vertex  6.222595e+00  2.073254e+01 -2.999935e+00
    endloop
  endfacet
  facet normal  8.408355e-07  9.999617e-01  8.756896e-03
    outer loop
      vertex -2.190000e-01  2.072818e+01 -2.500000e+00
      vertex  1.873960e+01  2.073254e+01 -2.999935e+00
      vertex  1.830673e+01  2.073284e+01 -3.034089e+00
    endloop
  endfacet
  facet normal -3.086901e-07  9.999620e-01  8.717027e-03
    outer loop
      vertex -2.190000e-01  2.072818e+01 -2.500000e+00
      vertex  1.830673e+01  2.073284e+01 -3.034089e+00
      vertex  1.788332e+01  2.073368e+01 -3.130375e+00
    endloop
  endfacet
  facet normal  1.866771e-07  9.999619e-01  8.731250e-03
    outer loop
      vertex -2.190000e-01  2.072818e+01 -2.500000e+00
      vertex  1.788332e+01  2.073368e+01 -3.130375e+00
      vertex  1.747824e+01  2.073504e+01 -3.286771e+00
    endloop
  endfacet
  facet normal -2.442507e-07  9.999619e-01  8.721558e-03
    outer loop
      vertex -2.190000e-01  2.072818e+01 -2.500000e+00
      vertex  1.747824e+01  2.073504e+01 -3.286771e+00
      vertex  1.710000e+01  2.073690e+01 -3.500000e+00
    endloop
  endfacet
  facet normal -1.749749e-07  9.999620e-01  8.722761e-03
    outer loop
      vertex -2.190000e-01  2.072818e+01 -2.500000e+00
      vertex  1.710000e+01  2.073690e+01 -3.500000e+00
      vertex  6.222595e+00  2.073254e+01 -2.999935e+00
    endloop
  endfacet
  facet normal  1.664508e-06  9.999618e-01  8.746456e-03
    outer loop
      vertex -2.190000e-01  2.072818e+01 -2.500000e+00
      vertex  6.222595e+00  2.073254e+01 -2.999935e+00
      vertex  5.789729e+00  2.073284e+01 -3.034089e+00
    endloop
  endfacet
  facet normal -7.710233e-07  9.999620e-01  8.719059e-03
    outer loop
      vertex -2.190000e-01  2.072818e+01 -2.500000e+00
      vertex  5.789729e+00  2.073284e+01 -3.034089e+00
      vertex  5.366319e+00  2.073368e+01 -3.130375e+00
    endloop
  endfacet
  facet normal  5.103996e-07  9.999619e-01  8.730412e-03
    outer loop
      vertex -2.190000e-01  2.072818e+01 -2.500000e+00
      vertex  5.366319e+00  2.073368e+01 -3.130375e+00
      vertex  4.961244e+00  2.073504e+01 -3.286771e+00
    endloop
  endfacet
  facet normal -7.091745e-07  9.999619e-01  8.722383e-03
    outer loop
      vertex -2.190000e-01  2.072818e+01 -2.500000e+00
      vertex  4.961244e+00  2.073504e+01 -3.286771e+00
      vertex  4.583000e+00  2.073690e+01 -3.500000e+00
    endloop
  endfacet
  facet normal -6.931005e-05  9.999648e-01  8.393039e-03
    outer loop
      vertex -2.190000e-01  2.072818e+01 -2.500000e+00
      vertex  4.583000e+00  2.073690e+01 -3.500000e+00
      vertex -2.190000e-01  2.072820e+01 -2.503181e+00
    endloop
  endfacet
  facet normal  9.961947e-01  -0.000000e+00  8.715559e-02
    outer loop
      vertex  1.020017e+01 -1.568785e+00 -4.510000e+00
      vertex  1.020017e+01 -2.006099e+00 -4.510000e+00
      vertex  1.025266e+01 -1.953606e+00 -5.110000e+00
    endloop
  endfacet
  facet normal  9.961947e-01  -0.000000e+00  8.715592e-02
    outer loop
      vertex  1.002432e+01  2.501278e+00 -2.500000e+00
      vertex  1.002432e+01 -2.187217e-01 -2.500000e+00
      vertex  1.025266e+01  9.943941e-01 -5.110000e+00
    endloop
  endfacet
  facet normal  9.961946e-01  1.793219e-07  8.715598e-02
    outer loop
      vertex  1.025266e+01  9.943941e-01 -5.110000e+00
      vertex  1.002432e+01 -2.187217e-01 -2.500000e+00
      vertex  1.020017e+01 -3.945739e-01 -4.510000e+00
    endloop
  endfacet
  facet normal  9.961947e-01  0.000000e+00  8.715559e-02
    outer loop
      vertex  1.025266e+01  9.943941e-01 -5.110000e+00
      vertex  1.020017e+01 -3.945739e-01 -4.510000e+00
      vertex  1.025266e+01 -1.953606e+00 -5.110000e+00
    endloop
  endfacet
  facet normal  9.961947e-01  0.000000e+00  8.715559e-02
    outer loop
      vertex  1.025266e+01 -1.953606e+00 -5.110000e+00
      vertex  1.020017e+01 -3.945739e-01 -4.510000e+00
      vertex  1.020017e+01 -1.006809e+00 -4.510000e+00
    endloop
  endfacet
  facet normal  9.961947e-01  0.000000e+00  8.715559e-02
    outer loop
      vertex  1.025266e+01 -1.953606e+00 -5.110000e+00
      vertex  1.020017e+01 -1.006809e+00 -4.510000e+00
      vertex  1.020017e+01 -1.568785e+00 -4.510000e+00
    endloop
  endfacet
  facet normal -9.961947e-01  0.000000e+00  8.715560e-02
    outer loop
      vertex  1.479983e+01 -1.006809e+00 -4.510000e+00
      vertex  1.474734e+01 -1.953606e+00 -5.110000e+00
      vertex  1.479983e+01 -1.568785e+00 -4.510000e+00
    endloop
  endfacet
  facet normal -9.961947e-01  0.000000e+00  8.715559e-02
    outer loop
      vertex  1.474734e+01 -1.953606e+00 -5.110000e+00
      vertex  1.479983e+01 -2.006099e+00 -4.510000e+00
      vertex  1.479983e+01 -1.568785e+00 -4.510000e+00
    endloop
  endfacet
  facet normal -9.961947e-01  0.000000e+00  8.715601e-02
    outer loop
      vertex  1.479983e+01 -3.945739e-01 -4.510000e+00
      vertex  1.497568e+01 -2.187217e-01 -2.500000e+00
      vertex  1.497568e+01  2.501278e+00 -2.500000e+00
    endloop
  endfacet
  facet normal -9.961947e-01  1.114317e-07  8.715585e-02
    outer loop
      vertex  1.479983e+01 -3.945739e-01 -4.510000e+00
      vertex  1.497568e+01  2.501278e+00 -2.500000e+00
      vertex  1.474734e+01  9.943941e-01 -5.110000e+00
    endloop
  endfacet
  facet normal -9.961947e-01  0.000000e+00  8.715559e-02
    outer loop
      vertex  1.479983e+01 -3.945739e-01 -4.510000e+00
      vertex  1.474734e+01  9.943941e-01 -5.110000e+00
      vertex  1.474734e+01 -1.953606e+00 -5.110000e+00
    endloop
  endfacet
  facet normal -9.961947e-01  0.000000e+00  8.715559e-02
    outer loop
      vertex  1.479983e+01 -3.945739e-01 -4.510000e+00
      vertex  1.474734e+01 -1.953606e+00 -5.110000e+00
      vertex  1.479983e+01 -1.006809e+00 -4.510000e+00
    endloop
  endfacet
  facet normal  0.000000e+00  9.961947e-01 -8.715572e-02
    outer loop
      vertex  1.002432e+01 -2.187217e-01 -2.500000e+00
      vertex  1.497568e+01 -2.187217e-01 -2.500000e+00
      vertex  1.020017e+01 -3.945739e-01 -4.510000e+00
    endloop
  endfacet
  facet normal  0.000000e+00  9.961947e-01 -8.715574e-02
    outer loop
      vertex  1.020017e+01 -3.945739e-01 -4.510000e+00
      vertex  1.497568e+01 -2.187217e-01 -2.500000e+00
      vertex  1.479983e+01 -3.945739e-01 -4.510000e+00
    endloop
  endfacet
  facet normal  9.999492e-01  5.043246e-03  8.727568e-03
    outer loop
      vertex  1.702489e+01  6.099166e+01 -5.951037e+00
      vertex  1.703345e+01  6.100026e+01 -6.937000e+00
      vertex  1.701685e+01  6.256160e+01 -5.937337e+00
    endloop
  endfacet
  facet normal  9.999492e-01  5.043820e-03  8.726674e-03
    outer loop
      vertex  1.701685e+01  6.256160e+01 -5.937337e+00
      vertex  1.703345e+01  6.100026e+01 -6.937000e+00
      vertex  1.700000e+01  6.763126e+01 -6.937000e+00
    endloop
  endfacet
  facet normal  9.999492e-01  5.043741e-03  8.726276e-03
    outer loop
      vertex  1.701685e+01  6.256160e+01 -5.937337e+00
      vertex  1.700000e+01  6.763126e+01 -6.937000e+00
      vertex  1.700003e+01  6.254469e+01 -4.000268e+00
    endloop
  endfacet
  facet normal -9.999492e-01  5.043741e-03  8.726276e-03
    outer loop
      vertex  2.299997e+01  6.254469e+01 -4.000268e+00
      vertex  2.300000e+01  6.763126e+01 -6.937000e+00
      vertex  2.298315e+01  6.256160e+01 -5.937337e+00
    endloop
  endfacet
  facet normal -9.999492e-01  5.043820e-03  8.726674e-03
    outer loop
      vertex  2.298315e+01  6.256160e+01 -5.937337e+00
      vertex  2.300000e+01  6.763126e+01 -6.937000e+00
      vertex  2.296655e+01  6.100026e+01 -6.937000e+00
    endloop
  endfacet
  facet normal -9.999492e-01  5.043246e-03  8.727568e-03
    outer loop
      vertex  2.298315e+01  6.256160e+01 -5.937337e+00
      vertex  2.296655e+01  6.100026e+01 -6.937000e+00
      vertex  2.297511e+01  6.099166e+01 -5.951037e+00
    endloop
  endfacet
  facet normal  -0.000000e+00  9.999619e-01  8.725699e-03
    outer loop
      vertex  2.298315e+01  6.256160e+01 -5.937337e+00
      vertex  1.701685e+01  6.256160e+01 -5.937337e+00
      vertex  2.299997e+01  6.254469e+01 -4.000268e+00
    endloop
  endfacet
  facet normal  0.000000e+00  9.999620e-01  8.725699e-03
    outer loop
      vertex  2.299997e+01  6.254469e+01 -4.000268e+00
      vertex  1.701685e+01  6.256160e+01 -5.937337e+00
      vertex  1.700003e+01  6.254469e+01 -4.000268e+00
    endloop
  endfacet
  facet normal  0.000000e+00  0.000000e+00  1.000000e+00
    outer loop
      vertex  1.703345e+01  6.100026e+01 -6.937000e+00
      vertex  1.754200e+01  6.763126e+01 -6.937000e+00
      vertex  1.700000e+01  6.763126e+01 -6.937000e+00
    endloop
  endfacet
  facet normal  0.000000e+00  0.000000e+00  1.000000e+00
    outer loop
      vertex  1.754200e+01  6.763126e+01 -6.937000e+00
      vertex  1.703345e+01  6.100026e+01 -6.937000e+00
      vertex  1.756541e+01  6.299026e+01 -6.937000e+00
    endloop
  endfacet
  facet normal  0.000000e+00  0.000000e+00  1.000000e+00
    outer loop
      vertex  1.756541e+01  6.299026e+01 -6.937000e+00
      vertex  1.703345e+01  6.100026e+01 -6.937000e+00
      vertex  2.296655e+01  6.100026e+01 -6.937000e+00
    endloop
  endfacet
  facet normal  0.000000e+00  0.000000e+00  1.000000e+00
    outer loop
      vertex  1.756541e+01  6.299026e+01 -6.937000e+00
      vertex  2.296655e+01  6.100026e+01 -6.937000e+00
      vertex  2.248141e+01  6.299026e+01 -6.937000e+00
    endloop
  endfacet
  facet normal  -0.000000e+00  0.000000e+00  1.000000e+00
    outer loop
      vertex  2.248141e+01  6.299026e+01 -6.937000e+00
      vertex  2.296655e+01  6.100026e+01 -6.937000e+00
      vertex  2.300000e+01  6.763126e+01 -6.937000e+00
    endloop
  endfacet
  facet normal  0.000000e+00  0.000000e+00  1.000000e+00
    outer loop
      vertex  2.248141e+01  6.299026e+01 -6.937000e+00
      vertex  2.300000e+01  6.763126e+01 -6.937000e+00
      vertex  2.245800e+01  6.763126e+01 -6.937000e+00
    endloop
  endfacet
  facet normal  0.000000e+00  8.726433e-03 -9.999619e-01
    outer loop
      vertex  2.297511e+01  6.099166e+01 -5.951037e+00
      vertex  1.702489e+01  6.099166e+01 -5.951037e+00
      vertex  2.298315e+01  6.256160e+01 -5.937337e+00
    endloop
  endfacet
  facet normal  0.000000e+00  8.726432e-03 -9.999619e-01
    outer loop
      vertex  2.298315e+01  6.256160e+01 -5.937337e+00
      vertex  1.702489e+01  6.099166e+01 -5.951037e+00
      vertex  1.701685e+01  6.256160e+01 -5.937337e+00
    endloop
  endfacet
  facet normal  0.000000e+00  9.999620e-01  8.728153e-03
    outer loop
      vertex  2.297511e+01  6.099166e+01 -5.951037e+00
      vertex  2.296655e+01  6.100026e+01 -6.937000e+00
      vertex  1.702489e+01  6.099166e+01 -5.951037e+00
    endloop
  endfacet
  facet normal  0.000000e+00  9.999620e-01  8.728152e-03
    outer loop
      vertex  1.702489e+01  6.099166e+01 -5.951037e+00
      vertex  2.296655e+01  6.100026e+01 -6.937000e+00
      vertex  1.703345e+01  6.100026e+01 -6.937000e+00
    endloop
  endfacet
  facet normal  0.000000e+00  8.561983e-02  9.963278e-01
    outer loop
      vertex -2.131286e-01  5.981218e+01 -2.500000e+00
      vertex  2.521313e+01  5.981218e+01 -2.500000e+00
      vertex -2.120902e-01  5.989748e+01 -2.507331e+00
    endloop
  endfacet
  facet normal  -0.000000e+00  8.561984e-02  9.963279e-01
    outer loop
      vertex -2.120902e-01  5.989748e+01 -2.507331e+00
      vertex  2.521313e+01  5.981218e+01 -2.500000e+00
      vertex  2.521209e+01  5.989748e+01 -2.507331e+00
    endloop
  endfacet
  facet normal  0.000000e+00  2.557414e-01  9.667453e-01
    outer loop
      vertex -2.120902e-01  5.989748e+01 -2.507331e+00
      vertex  2.521209e+01  5.989748e+01 -2.507331e+00
      vertex -2.121544e-01  5.998164e+01 -2.529594e+00
    endloop
  endfacet
  facet normal  -0.000000e+00  2.557414e-01  9.667452e-01
    outer loop
      vertex -2.121544e-01  5.998164e+01 -2.529594e+00
      vertex  2.521209e+01  5.989748e+01 -2.507331e+00
      vertex  2.521215e+01  5.998164e+01 -2.529594e+00
    endloop
  endfacet
  facet normal  0.000000e+00  4.211245e-01  9.070027e-01
    outer loop
      vertex -2.121544e-01  5.998164e+01 -2.529594e+00
      vertex  2.521215e+01  5.998164e+01 -2.529594e+00
      vertex -2.134084e-01  6.006218e+01 -2.566987e+00
    endloop
  endfacet
  facet normal  -0.000000e+00  4.211245e-01  9.070029e-01
    outer loop
      vertex -2.134084e-01  6.006218e+01 -2.566987e+00
      vertex  2.521215e+01  5.998164e+01 -2.529594e+00
      vertex  2.521341e+01  6.006218e+01 -2.566987e+00
    endloop
  endfacet
  facet normal  9.999493e-01 -5.043776e-03  8.726465e-03
    outer loop
      vertex  7.411442e+00  6.301353e+01 -4.270950e+00
      vertex  7.434591e+00  6.299026e+01 -6.937000e+00
      vertex  7.458000e+00  6.763126e+01 -6.937000e+00
    endloop
  endfacet
  facet normal  0.000000e+00 -9.999620e-01  8.726378e-03
    outer loop
      vertex  7.434591e+00  6.299026e+01 -6.937000e+00
      vertex  7.411442e+00  6.301353e+01 -4.270950e+00
      vertex  2.518591e+00  6.299026e+01 -6.937000e+00
    endloop
  endfacet
  facet normal  0.000000e+00 -9.999620e-01  8.726377e-03
    outer loop
      vertex  2.518591e+00  6.299026e+01 -6.937000e+00
      vertex  7.411442e+00  6.301353e+01 -4.270950e+00
      vertex  2.541974e+00  6.301353e+01 -4.270950e+00
    endloop
  endfacet
  facet normal -9.999493e-01  5.043776e-03  8.726426e-03
    outer loop
      vertex  2.542000e+00  6.763126e+01 -6.937000e+00
      vertex  2.518591e+00  6.299026e+01 -6.937000e+00
      vertex  2.541974e+00  6.301353e+01 -4.270950e+00
    endloop
  endfacet
  facet normal  -0.000000e+00  9.999619e-01  8.725699e-03
    outer loop
      vertex  7.983152e+00  6.256160e+01 -5.937337e+00
      vertex  2.016848e+00  6.256160e+01 -5.937337e+00
      vertex  7.999971e+00  6.254469e+01 -4.000268e+00
    endloop
  endfacet
  facet normal  0.000000e+00  9.999620e-01  8.725699e-03
    outer loop
      vertex  7.999971e+00  6.254469e+01 -4.000268e+00
      vertex  2.016848e+00  6.256160e+01 -5.937337e+00
      vertex  2.000028e+00  6.254469e+01 -4.000268e+00
    endloop
  endfacet
  facet normal  9.999493e-01  5.043864e-03  8.726366e-03
    outer loop
      vertex  2.024886e+00  6.099166e+01 -5.951037e+00
      vertex  2.033447e+00  6.100026e+01 -6.937000e+00
      vertex  2.016848e+00  6.256160e+01 -5.937337e+00
    endloop
  endfacet
  facet normal  9.999492e-01  5.043784e-03  8.726492e-03
    outer loop
      vertex  2.016848e+00  6.256160e+01 -5.937337e+00
      vertex  2.033447e+00  6.100026e+01 -6.937000e+00
      vertex  2.000000e+00  6.763126e+01 -6.937000e+00
    endloop
  endfacet
  facet normal  9.999492e-01  5.043765e-03  8.726400e-03
    outer loop
      vertex  2.016848e+00  6.256160e+01 -5.937337e+00
      vertex  2.000000e+00  6.763126e+01 -6.937000e+00
      vertex  2.000028e+00  6.254469e+01 -4.000268e+00
    endloop
  endfacet
  facet normal -9.999492e-01  5.043741e-03  8.726276e-03
    outer loop
      vertex  7.999971e+00  6.254469e+01 -4.000268e+00
      vertex  8.000000e+00  6.763126e+01 -6.937000e+00
      vertex  7.983152e+00  6.256160e+01 -5.937337e+00
    endloop
  endfacet
  facet normal -9.999492e-01  5.043820e-03  8.726674e-03
    outer loop
      vertex  7.983152e+00  6.256160e+01 -5.937337e+00
      vertex  8.000000e+00  6.763126e+01 -6.937000e+00
      vertex  7.966553e+00  6.100026e+01 -6.937000e+00
    endloop
  endfacet
  facet normal -9.999492e-01  5.043862e-03  8.726607e-03
    outer loop
      vertex  7.983152e+00  6.256160e+01 -5.937337e+00
      vertex  7.966553e+00  6.100026e+01 -6.937000e+00
      vertex  7.975114e+00  6.099166e+01 -5.951037e+00
    endloop
  endfacet
  facet normal  0.000000e+00  0.000000e+00  1.000000e+00
    outer loop
      vertex  2.033447e+00  6.100026e+01 -6.937000e+00
      vertex  2.542000e+00  6.763126e+01 -6.937000e+00
      vertex  2.000000e+00  6.763126e+01 -6.937000e+00
    endloop
  endfacet
  facet normal  0.000000e+00  0.000000e+00  1.000000e+00
    outer loop
      vertex  2.542000e+00  6.763126e+01 -6.937000e+00
      vertex  2.033447e+00  6.100026e+01 -6.937000e+00
      vertex  2.518591e+00  6.299026e+01 -6.937000e+00
    endloop
  endfacet
  facet normal  0.000000e+00  0.000000e+00  1.000000e+00
    outer loop
      vertex  2.518591e+00  6.299026e+01 -6.937000e+00
      vertex  2.033447e+00  6.100026e+01 -6.937000e+00
      vertex  7.966553e+00  6.100026e+01 -6.937000e+00
    endloop
  endfacet
  facet normal  0.000000e+00  0.000000e+00  1.000000e+00
    outer loop
      vertex  2.518591e+00  6.299026e+01 -6.937000e+00
      vertex  7.966553e+00  6.100026e+01 -6.937000e+00
      vertex  7.434591e+00  6.299026e+01 -6.937000e+00
    endloop
  endfacet
  facet normal  -0.000000e+00  0.000000e+00  9.999999e-01
    outer loop
      vertex  7.434591e+00  6.299026e+01 -6.937000e+00
      vertex  7.966553e+00  6.100026e+01 -6.937000e+00
      vertex  8.000000e+00  6.763126e+01 -6.937000e+00
    endloop
  endfacet
  facet normal  0.000000e+00  0.000000e+00  1.000000e+00
    outer loop
      vertex  7.434591e+00  6.299026e+01 -6.937000e+00
      vertex  8.000000e+00  6.763126e+01 -6.937000e+00
      vertex  7.458000e+00  6.763126e+01 -6.937000e+00
    endloop
  endfacet
  facet normal  9.999493e-01  5.043674e-03  8.726605e-03
    outer loop
      vertex  2.245802e+01  6.301353e+01 -4.270950e+00
      vertex  2.248141e+01  6.299026e+01 -6.937000e+00
      vertex  2.245800e+01  6.763126e+01 -6.937000e+00
    endloop
  endfacet
  facet normal  0.000000e+00 -9.999619e-01  8.726377e-03
    outer loop
      vertex  2.248141e+01  6.299026e+01 -6.937000e+00
      vertex  2.245802e+01  6.301353e+01 -4.270950e+00
      vertex  1.756541e+01  6.299026e+01 -6.937000e+00
    endloop
  endfacet
  facet normal  0.000000e+00 -9.999619e-01  8.726377e-03
    outer loop
      vertex  1.756541e+01  6.299026e+01 -6.937000e+00
      vertex  2.245802e+01  6.301353e+01 -4.270950e+00
      vertex  1.758856e+01  6.301353e+01 -4.270950e+00
    endloop
  endfacet
  facet normal -9.999493e-01 -5.043674e-03  8.726642e-03
    outer loop
      vertex  1.754200e+01  6.763126e+01 -6.937000e+00
      vertex  1.756541e+01  6.299026e+01 -6.937000e+00
      vertex  1.758856e+01  6.301353e+01 -4.270950e+00
    endloop
  endfacet
  facet normal  -0.000000e+00  0.000000e+00 -1.000000e+00
    outer loop
      vertex  0.000000e+00  5.919615e+01  0.000000e+00
      vertex  2.500000e+01  5.919615e+01  0.000000e+00
      vertex  0.000000e+00  0.000000e+00  0.000000e+00
    endloop
  endfacet
  facet normal  0.000000e+00  0.000000e+00 -1.000000e+00
    outer loop
      vertex  0.000000e+00  0.000000e+00  0.000000e+00
      vertex  2.500000e+01  5.919615e+01  0.000000e+00
      vertex  2.500000e+01  0.000000e+00  0.000000e+00
    endloop
  endfacet
  facet normal  -0.000000e+00 -1.950896e-01 -9.807855e-01
    outer loop
      vertex  0.000000e+00  5.997261e+01 -1.022225e-01
      vertex  2.500000e+01  5.958773e+01 -2.566542e-02
      vertex  0.000000e+00  5.958773e+01 -2.566542e-02
    endloop
  endfacet
  facet normal  0.000000e+00 -6.540310e-02 -9.978589e-01
    outer loop
      vertex  0.000000e+00  5.958773e+01 -2.566542e-02
      vertex  2.500000e+01  5.958773e+01 -2.566542e-02
      vertex  2.500000e+01  5.919615e+01  0.000000e+00
    endloop
  endfacet
  facet normal  -0.000000e+00 -6.540310e-02 -9.978589e-01
    outer loop
      vertex  0.000000e+00  5.958773e+01 -2.566542e-02
      vertex  2.500000e+01  5.919615e+01  0.000000e+00
      vertex  0.000000e+00  5.919615e+01  0.000000e+00
    endloop
  endfacet
  facet normal  0.000000e+00 -1.950896e-01 -9.807855e-01
    outer loop
      vertex  2.500000e+01  5.958773e+01 -2.566542e-02
      vertex  0.000000e+00  5.997261e+01 -1.022225e-01
      vertex  2.500000e+01  5.997261e+01 -1.022225e-01
    endloop
  endfacet
  facet normal  -0.000000e+00 -3.214392e-01 -9.469302e-01
    outer loop
      vertex  2.500000e+01  5.997261e+01 -1.022225e-01
      vertex  0.000000e+00  5.997261e+01 -1.022225e-01
      vertex  0.000000e+00  6.034420e+01 -2.283614e-01
    endloop
  endfacet
  facet normal  0.000000e+00 -3.214392e-01 -9.469302e-01
    outer loop
      vertex  2.500000e+01  5.997261e+01 -1.022225e-01
      vertex  0.000000e+00  6.034420e+01 -2.283614e-01
      vertex  2.500000e+01  6.034420e+01 -2.283614e-01
    endloop
  endfacet
  facet normal  -0.000000e+00 -4.422906e-01 -8.968717e-01
    outer loop
      vertex  2.500000e+01  6.034420e+01 -2.283614e-01
      vertex  0.000000e+00  6.034420e+01 -2.283614e-01
      vertex  0.000000e+00  6.069615e+01 -4.019238e-01
    endloop
  endfacet
  facet normal  0.000000e+00 -4.422906e-01 -8.968717e-01
    outer loop
      vertex  2.500000e+01  6.034420e+01 -2.283614e-01
      vertex  0.000000e+00  6.069615e+01 -4.019238e-01
      vertex  2.500000e+01  6.069615e+01 -4.019238e-01
    endloop
  endfacet
  facet normal  0.000000e+00 -5.000001e-01 -8.660254e-01
    outer loop
      vertex  0.000000e+00  6.069615e+01 -4.019238e-01
      vertex  1.776357e-15  7.299038e+01 -7.500000e+00
      vertex  2.500000e+01  6.069615e+01 -4.019238e-01
    endloop
  endfacet
  facet normal  0.000000e+00 -5.000001e-01 -8.660254e-01
    outer loop
      vertex  2.500000e+01  6.069615e+01 -4.019238e-01
      vertex  1.776357e-15  7.299038e+01 -7.500000e+00
      vertex  2.500000e+01  7.299038e+01 -7.500000e+00
    endloop
  endfacet
  facet normal  0.000000e+00  8.726432e-03 -9.999619e-01
    outer loop
      vertex  7.975114e+00  6.099166e+01 -5.951037e+00
      vertex  2.024886e+00  6.099166e+01 -5.951037e+00
      vertex  7.983152e+00  6.256160e+01 -5.937337e+00
    endloop
  endfacet
  facet normal  0.000000e+00  8.726432e-03 -9.999619e-01
    outer loop
      vertex  7.983152e+00  6.256160e+01 -5.937337e+00
      vertex  2.024886e+00  6.099166e+01 -5.951037e+00
      vertex  2.016848e+00  6.256160e+01 -5.937337e+00
    endloop
  endfacet
  facet normal  0.000000e+00  9.999620e-01  8.728152e-03
    outer loop
      vertex  7.975114e+00  6.099166e+01 -5.951037e+00
      vertex  7.966553e+00  6.100026e+01 -6.937000e+00
      vertex  2.024886e+00  6.099166e+01 -5.951037e+00
    endloop
  endfacet
  facet normal  0.000000e+00  9.999620e-01  8.728151e-03
    outer loop
      vertex  2.024886e+00  6.099166e+01 -5.951037e+00
      vertex  7.966553e+00  6.100026e+01 -6.937000e+00
      vertex  2.033447e+00  6.100026e+01 -6.937000e+00
    endloop
  endfacet
  facet normal  0.000000e+00 -8.660254e-01  5.000001e-01
    outer loop
      vertex  1.002432e+01  2.501278e+00 -2.500000e+00
      vertex  1.025266e+01  9.943941e-01 -5.110000e+00
      vertex  1.497568e+01  2.501278e+00 -2.500000e+00
    endloop
  endfacet
  facet normal  0.000000e+00 -8.660254e-01  5.000000e-01
    outer loop
      vertex  1.497568e+01  2.501278e+00 -2.500000e+00
      vertex  1.025266e+01  9.943941e-01 -5.110000e+00
      vertex  1.474734e+01  9.943941e-01 -5.110000e+00
    endloop
  endfacet
  facet normal  0.000000e+00  0.000000e+00  1.000000e+00
    outer loop
      vertex  1.474734e+01 -1.953606e+00 -5.110000e+00
      vertex  1.474734e+01  9.943941e-01 -5.110000e+00
      vertex  1.025266e+01 -1.953606e+00 -5.110000e+00
    endloop
  endfacet
  facet normal  0.000000e+00  0.000000e+00  1.000000e+00
    outer loop
      vertex  1.025266e+01 -1.953606e+00 -5.110000e+00
      vertex  1.474734e+01  9.943941e-01 -5.110000e+00
      vertex  1.025266e+01  9.943941e-01 -5.110000e+00
    endloop
  endfacet
  facet normal  0.000000e+00  9.961947e-01  8.715558e-02
    outer loop
      vertex  1.025266e+01 -1.953606e+00 -5.110000e+00
      vertex  1.020017e+01 -2.006099e+00 -4.510000e+00
      vertex  1.474734e+01 -1.953606e+00 -5.110000e+00
    endloop
  endfacet
  facet normal  0.000000e+00  9.961947e-01  8.715559e-02
    outer loop
      vertex  1.474734e+01 -1.953606e+00 -5.110000e+00
      vertex  1.020017e+01 -2.006099e+00 -4.510000e+00
      vertex  1.479983e+01 -2.006099e+00 -4.510000e+00
    endloop
  endfacet
  facet normal  0.000000e+00  0.000000e+00 -1.000000e+00
    outer loop
      vertex  1.020017e+01 -1.006809e+00 -4.510000e+00
      vertex  1.020017e+01 -3.945739e-01 -4.510000e+00
      vertex  1.479983e+01 -1.006809e+00 -4.510000e+00
    endloop
  endfacet
  facet normal  0.000000e+00  0.000000e+00 -1.000000e+00
    outer loop
      vertex  1.479983e+01 -1.006809e+00 -4.510000e+00
      vertex  1.020017e+01 -3.945739e-01 -4.510000e+00
      vertex  1.479983e+01 -3.945739e-01 -4.510000e+00
    endloop
  endfacet
  facet normal  9.961947e-01  0.000000e+00 -8.715555e-02
    outer loop
      vertex  1.025266e+01 -1.059302e+00 -3.910000e+00
      vertex  1.025266e+01 -1.654302e+00 -3.910000e+00
      vertex  1.020017e+01 -1.006809e+00 -4.510000e+00
    endloop
  endfacet
  facet normal  9.961947e-01  0.000000e+00 -8.715555e-02
    outer loop
      vertex  1.020017e+01 -1.006809e+00 -4.510000e+00
      vertex  1.025266e+01 -1.654302e+00 -3.910000e+00
      vertex  1.020017e+01 -1.568785e+00 -4.510000e+00
    endloop
  endfacet
  facet normal  9.961947e-01  3.816753e-07 -8.715549e-02
    outer loop
      vertex  1.025266e+01 -1.654302e+00 -3.910000e+00
      vertex  1.022397e+01 -1.982302e+00 -4.238000e+00
      vertex  1.020017e+01 -1.568785e+00 -4.510000e+00
    endloop
  endfacet
  facet normal  9.961946e-01  0.000000e+00 -8.715607e-02
    outer loop
      vertex  1.020017e+01 -1.568785e+00 -4.510000e+00
      vertex  1.022397e+01 -1.982302e+00 -4.238000e+00
      vertex  1.020017e+01 -2.006099e+00 -4.510000e+00
    endloop
  endfacet
  facet normal  0.000000e+00  9.961947e-01 -8.715521e-02
    outer loop
      vertex  1.020017e+01 -2.006099e+00 -4.510000e+00
      vertex  1.022397e+01 -1.982302e+00 -4.238000e+00
      vertex  1.479983e+01 -2.006099e+00 -4.510000e+00
    endloop
  endfacet
  facet normal  0.000000e+00  9.961948e-01 -8.715521e-02
    outer loop
      vertex  1.479983e+01 -2.006099e+00 -4.510000e+00
      vertex  1.022397e+01 -1.982302e+00 -4.238000e+00
      vertex  1.477603e+01 -1.982302e+00 -4.238000e+00
    endloop
  endfacet
  facet normal  -0.000000e+00 -9.961947e-01 -8.715555e-02
    outer loop
      vertex  1.020017e+01 -1.006809e+00 -4.510000e+00
      vertex  1.479983e+01 -1.006809e+00 -4.510000e+00
      vertex  1.025266e+01 -1.059302e+00 -3.910000e+00
    endloop
  endfacet
  facet normal  0.000000e+00 -9.961947e-01 -8.715556e-02
    outer loop
      vertex  1.025266e+01 -1.059302e+00 -3.910000e+00
      vertex  1.479983e+01 -1.006809e+00 -4.510000e+00
      vertex  1.474734e+01 -1.059302e+00 -3.910000e+00
    endloop
  endfacet
  facet normal -9.961947e-01  0.000000e+00 -8.715556e-02
    outer loop
      vertex  1.474734e+01 -1.059302e+00 -3.910000e+00
      vertex  1.479983e+01 -1.006809e+00 -4.510000e+00
      vertex  1.474734e+01 -1.654302e+00 -3.910000e+00
    endloop
  endfacet
  facet normal -9.961947e-01  0.000000e+00 -8.715555e-02
    outer loop
      vertex  1.474734e+01 -1.654302e+00 -3.910000e+00
      vertex  1.479983e+01 -1.006809e+00 -4.510000e+00
      vertex  1.479983e+01 -1.568785e+00 -4.510000e+00
    endloop
  endfacet
  facet normal -9.961947e-01  3.837384e-07 -8.715549e-02
    outer loop
      vertex  1.474734e+01 -1.654302e+00 -3.910000e+00
      vertex  1.479983e+01 -1.568785e+00 -4.510000e+00
      vertex  1.477603e+01 -1.982302e+00 -4.238000e+00
    endloop
  endfacet
  facet normal -9.961947e-01  0.000000e+00 -8.715607e-02
    outer loop
      vertex  1.477603e+01 -1.982302e+00 -4.238000e+00
      vertex  1.479983e+01 -1.568785e+00 -4.510000e+00
      vertex  1.479983e+01 -2.006099e+00 -4.510000e+00
    endloop
  endfacet
  facet normal  0.000000e+00  0.000000e+00 -1.000000e+00
    outer loop
      vertex  1.025266e+01 -1.654302e+00 -3.910000e+00
      vertex  1.025266e+01 -1.059302e+00 -3.910000e+00
      vertex  1.474734e+01 -1.654302e+00 -3.910000e+00
    endloop
  endfacet
  facet normal  0.000000e+00  0.000000e+00 -1.000000e+00
    outer loop
      vertex  1.474734e+01 -1.654302e+00 -3.910000e+00
      vertex  1.025266e+01 -1.059302e+00 -3.910000e+00
      vertex  1.474734e+01 -1.059302e+00 -3.910000e+00
    endloop
  endfacet
  facet normal  0.000000e+00  7.071065e-01 -7.071069e-01
    outer loop
      vertex  1.025266e+01 -1.654302e+00 -3.910000e+00
      vertex  1.474734e+01 -1.654302e+00 -3.910000e+00
      vertex  1.022397e+01 -1.982302e+00 -4.238000e+00
    endloop
  endfacet
  facet normal  0.000000e+00  7.071065e-01 -7.071070e-01
    outer loop
      vertex  1.022397e+01 -1.982302e+00 -4.238000e+00
      vertex  1.474734e+01 -1.654302e+00 -3.910000e+00
      vertex  1.477603e+01 -1.982302e+00 -4.238000e+00
    endloop
  endfacet
  facet normal  5.065366e-01  0.000000e+00  8.622185e-01
    outer loop
      vertex  2.041700e+01  2.073690e+01 -3.500000e+00
      vertex  2.041700e+01  2.126145e+01 -3.500000e+00
      vertex  2.013469e+01  2.073546e+01 -3.334150e+00
    endloop
  endfacet
  facet normal  5.065366e-01  -0.000000e+00  8.622184e-01
    outer loop
      vertex  2.013469e+01  2.073546e+01 -3.334150e+00
      vertex  2.041700e+01  2.126145e+01 -3.500000e+00
      vertex  2.013469e+01  2.126290e+01 -3.334150e+00
    endloop
  endfacet
  facet normal  3.858114e-01  0.000000e+00  9.225776e-01
    outer loop
      vertex  2.013469e+01  2.073546e+01 -3.334150e+00
      vertex  2.013469e+01  2.126290e+01 -3.334150e+00
      vertex  1.968969e+01  2.073383e+01 -3.148057e+00
    endloop
  endfacet
  facet normal  3.858115e-01  -0.000000e+00  9.225777e-01
    outer loop
      vertex  1.968969e+01  2.073383e+01 -3.148057e+00
      vertex  2.013469e+01  2.126290e+01 -3.334150e+00
      vertex  1.968969e+01  2.126452e+01 -3.148057e+00
    endloop
  endfacet
  facet normal  2.329727e-01  0.000000e+00  9.724833e-01
    outer loop
      vertex  1.968969e+01  2.073383e+01 -3.148057e+00
      vertex  1.968969e+01  2.126452e+01 -3.148057e+00
      vertex  1.922062e+01  2.073285e+01 -3.035682e+00
    endloop
  endfacet
  facet normal  2.329727e-01  -0.000000e+00  9.724832e-01
    outer loop
      vertex  1.922062e+01  2.073285e+01 -3.035682e+00
      vertex  1.968969e+01  2.126452e+01 -3.148057e+00
      vertex  1.922062e+01  2.126550e+01 -3.035682e+00
    endloop
  endfacet
  facet normal  7.411025e-02  0.000000e+00  9.972501e-01
    outer loop
      vertex  1.922062e+01  2.073285e+01 -3.035682e+00
      vertex  1.922062e+01  2.126550e+01 -3.035682e+00
      vertex  1.873960e+01  2.073254e+01 -2.999935e+00
    endloop
  endfacet
  facet normal  7.411025e-02  -0.000000e+00  9.972500e-01
    outer loop
      vertex  1.873960e+01  2.073254e+01 -2.999935e+00
      vertex  1.922062e+01  2.126550e+01 -3.035682e+00
      vertex  1.873960e+01  2.126582e+01 -2.999935e+00
    endloop
  endfacet
  facet normal -7.865613e-02  0.000000e+00  9.969019e-01
    outer loop
      vertex  1.873960e+01  2.073254e+01 -2.999935e+00
      vertex  1.873960e+01  2.126582e+01 -2.999935e+00
      vertex  1.830673e+01  2.073284e+01 -3.034089e+00
    endloop
  endfacet
  facet normal -7.865614e-02  0.000000e+00  9.969019e-01
    outer loop
      vertex  1.830673e+01  2.073284e+01 -3.034089e+00
      vertex  1.873960e+01  2.126582e+01 -2.999935e+00
      vertex  1.830673e+01  2.126552e+01 -3.034089e+00
    endloop
  endfacet
  facet normal -2.217466e-01  0.000000e+00  9.751043e-01
    outer loop
      vertex  1.830673e+01  2.073284e+01 -3.034089e+00
      vertex  1.830673e+01  2.126552e+01 -3.034089e+00
      vertex  1.788332e+01  2.073368e+01 -3.130375e+00
    endloop
  endfacet
  facet normal -2.217467e-01  0.000000e+00  9.751043e-01
    outer loop
      vertex  1.788332e+01  2.073368e+01 -3.130375e+00
      vertex  1.830673e+01  2.126552e+01 -3.034089e+00
      vertex  1.788332e+01  2.126468e+01 -3.130375e+00
    endloop
  endfacet
  facet normal -3.601786e-01  0.000000e+00  9.328833e-01
    outer loop
      vertex  1.788332e+01  2.073368e+01 -3.130375e+00
      vertex  1.788332e+01  2.126468e+01 -3.130375e+00
      vertex  1.747824e+01  2.073504e+01 -3.286771e+00
    endloop
  endfacet
  facet normal -3.601786e-01  0.000000e+00  9.328834e-01
    outer loop
      vertex  1.747824e+01  2.073504e+01 -3.286771e+00
      vertex  1.788332e+01  2.126468e+01 -3.130375e+00
      vertex  1.747824e+01  2.126331e+01 -3.286771e+00
    endloop
  endfacet
  facet normal -4.910767e-01  0.000000e+00  8.711163e-01
    outer loop
      vertex  1.747824e+01  2.073504e+01 -3.286771e+00
      vertex  1.747824e+01  2.126331e+01 -3.286771e+00
      vertex  1.710000e+01  2.073690e+01 -3.500000e+00
    endloop
  endfacet
  facet normal -4.910767e-01  0.000000e+00  8.711163e-01
    outer loop
      vertex  1.710000e+01  2.073690e+01 -3.500000e+00
      vertex  1.747824e+01  2.126331e+01 -3.286771e+00
      vertex  1.710000e+01  2.126145e+01 -3.500000e+00
    endloop
  endfacet
  facet normal  5.065372e-01  0.000000e+00  8.622181e-01
    outer loop
      vertex  7.900000e+00  2.073690e+01 -3.500000e+00
      vertex  7.900000e+00  2.126145e+01 -3.500000e+00
      vertex  7.617694e+00  2.073546e+01 -3.334150e+00
    endloop
  endfacet
  facet normal  5.065372e-01  -0.000000e+00  8.622181e-01
    outer loop
      vertex  7.617694e+00  2.073546e+01 -3.334150e+00
      vertex  7.900000e+00  2.126145e+01 -3.500000e+00
      vertex  7.617694e+00  2.126290e+01 -3.334150e+00
    endloop
  endfacet
  facet normal  3.858112e-01  0.000000e+00  9.225779e-01
    outer loop
      vertex  7.617694e+00  2.073546e+01 -3.334150e+00
      vertex  7.617694e+00  2.126290e+01 -3.334150e+00
      vertex  7.172694e+00  2.073383e+01 -3.148057e+00
    endloop
  endfacet
  facet normal  3.858111e-01  -0.000000e+00  9.225778e-01
    outer loop
      vertex  7.172694e+00  2.073383e+01 -3.148057e+00
      vertex  7.617694e+00  2.126290e+01 -3.334150e+00
      vertex  7.172694e+00  2.126452e+01 -3.148057e+00
    endloop
  endfacet
  facet normal  2.329722e-01  0.000000e+00  9.724835e-01
    outer loop
      vertex  7.172694e+00  2.073383e+01 -3.148057e+00
      vertex  7.172694e+00  2.126452e+01 -3.148057e+00
      vertex  6.703615e+00  2.073285e+01 -3.035682e+00
    endloop
  endfacet
  facet normal  2.329722e-01  -0.000000e+00  9.724834e-01
    outer loop
      vertex  6.703615e+00  2.073285e+01 -3.035682e+00
      vertex  7.172694e+00  2.126452e+01 -3.148057e+00
      vertex  6.703615e+00  2.126550e+01 -3.035682e+00
    endloop
  endfacet
  facet normal  7.411025e-02  0.000000e+00  9.972501e-01
    outer loop
      vertex  6.703615e+00  2.073285e+01 -3.035682e+00
      vertex  6.703615e+00  2.126550e+01 -3.035682e+00
      vertex  6.222595e+00  2.073254e+01 -2.999935e+00
    endloop
  endfacet
  facet normal  7.411025e-02  -0.000000e+00  9.972500e-01
    outer loop
      vertex  6.222595e+00  2.073254e+01 -2.999935e+00
      vertex  6.703615e+00  2.126550e+01 -3.035682e+00
      vertex  6.222595e+00  2.126582e+01 -2.999935e+00
    endloop
  endfacet
  facet normal -7.865638e-02  0.000000e+00  9.969018e-01
    outer loop
      vertex  6.222595e+00  2.073254e+01 -2.999935e+00
      vertex  6.222595e+00  2.126582e+01 -2.999935e+00
      vertex  5.789729e+00  2.073284e+01 -3.034089e+00
    endloop
  endfacet
  facet normal -7.865639e-02  0.000000e+00  9.969018e-01
    outer loop
      vertex  5.789729e+00  2.073284e+01 -3.034089e+00
      vertex  6.222595e+00  2.126582e+01 -2.999935e+00
      vertex  5.789729e+00  2.126552e+01 -3.034089e+00
    endloop
  endfacet
  facet normal -2.217459e-01  0.000000e+00  9.751045e-01
    outer loop
      vertex  5.789729e+00  2.073284e+01 -3.034089e+00
      vertex  5.789729e+00  2.126552e+01 -3.034089e+00
      vertex  5.366319e+00  2.073368e+01 -3.130375e+00
    endloop
  endfacet
  facet normal -2.217459e-01  0.000000e+00  9.751044e-01
    outer loop
      vertex  5.366319e+00  2.073368e+01 -3.130375e+00
      vertex  5.789729e+00  2.126552e+01 -3.034089e+00
      vertex  5.366319e+00  2.126468e+01 -3.130375e+00
    endloop
  endfacet
  facet normal -3.601786e-01  0.000000e+00  9.328833e-01
    outer loop
      vertex  5.366319e+00  2.073368e+01 -3.130375e+00
      vertex  5.366319e+00  2.126468e+01 -3.130375e+00
      vertex  4.961244e+00  2.073504e+01 -3.286771e+00
    endloop
  endfacet
  facet normal -3.601786e-01  0.000000e+00  9.328834e-01
    outer loop
      vertex  4.961244e+00  2.073504e+01 -3.286771e+00
      vertex  5.366319e+00  2.126468e+01 -3.130375e+00
      vertex  4.961244e+00  2.126331e+01 -3.286771e+00
    endloop
  endfacet
  facet normal -4.910772e-01  0.000000e+00  8.711162e-01
    outer loop
      vertex  4.961244e+00  2.073504e+01 -3.286771e+00
      vertex  4.961244e+00  2.126331e+01 -3.286771e+00
      vertex  4.583000e+00  2.073690e+01 -3.500000e+00
    endloop
  endfacet
  facet normal -4.910772e-01  0.000000e+00  8.711160e-01
    outer loop
      vertex  4.583000e+00  2.073690e+01 -3.500000e+00
      vertex  4.961244e+00  2.126331e+01 -3.286771e+00
      vertex  4.583000e+00  2.126145e+01 -3.500000e+00
    endloop
  endfacet
  facet normal  0.000000e+00  0.000000e+00  1.000000e+00
    outer loop
      vertex  2.041700e+01  2.073690e+01 -3.500000e+00
      vertex  2.521900e+01  2.073690e+01 -3.500000e+00
      vertex  2.041700e+01  2.126145e+01 -3.500000e+00
    endloop
  endfacet
  facet normal  -0.000000e+00  0.000000e+00  1.000000e+00
    outer loop
      vertex  2.041700e+01  2.126145e+01 -3.500000e+00
      vertex  2.521900e+01  2.073690e+01 -3.500000e+00
      vertex  2.521900e+01  2.126145e+01 -3.500000e+00
    endloop
  endfacet
  facet normal  0.000000e+00  0.000000e+00  1.000000e+00
    outer loop
      vertex  7.900000e+00  2.073690e+01 -3.500000e+00
      vertex  1.710000e+01  2.073690e+01 -3.500000e+00
      vertex  7.900000e+00  2.126145e+01 -3.500000e+00
    endloop
  endfacet
  facet normal  -0.000000e+00  0.000000e+00  1.000000e+00
    outer loop
      vertex  7.900000e+00  2.126145e+01 -3.500000e+00
      vertex  1.710000e+01  2.073690e+01 -3.500000e+00
      vertex  1.710000e+01  2.126145e+01 -3.500000e+00
    endloop
  endfacet
  facet normal  0.000000e+00  0.000000e+00  1.000000e+00
    outer loop
      vertex -2.190000e-01  2.073690e+01 -3.500000e+00
      vertex  4.583000e+00  2.073690e+01 -3.500000e+00
      vertex -2.190000e-01  2.126145e+01 -3.500000e+00
    endloop
  endfacet
  facet normal  -0.000000e+00  0.000000e+00  1.000000e+00
    outer loop
      vertex -2.190000e-01  2.126145e+01 -3.500000e+00
      vertex  4.583000e+00  2.073690e+01 -3.500000e+00
      vertex  4.583000e+00  2.126145e+01 -3.500000e+00
    endloop
  endfacet
  facet normal  5.062633e-01  0.000000e+00  8.623790e-01
    outer loop
      vertex  2.041700e+01  4.027890e+01 -3.500000e+00
      vertex  2.041700e+01  4.080345e+01 -3.500000e+00
      vertex  2.013338e+01  4.027745e+01 -3.333503e+00
    endloop
  endfacet
  facet normal  5.062633e-01  -0.000000e+00  8.623790e-01
    outer loop
      vertex  2.013338e+01  4.027745e+01 -3.333503e+00
      vertex  2.041700e+01  4.080345e+01 -3.500000e+00
      vertex  2.013338e+01  4.080490e+01 -3.333503e+00
    endloop
  endfacet
  facet normal  3.854182e-01  0.000000e+00  9.227420e-01
    outer loop
      vertex  2.013338e+01  4.027745e+01 -3.333503e+00
      vertex  2.013338e+01  4.080490e+01 -3.333503e+00
      vertex  1.968905e+01  4.027583e+01 -3.147910e+00
    endloop
  endfacet
  facet normal  3.854183e-01  -0.000000e+00  9.227421e-01
    outer loop
      vertex  1.968905e+01  4.027583e+01 -3.147910e+00
      vertex  2.013338e+01  4.080490e+01 -3.333503e+00
      vertex  1.968905e+01  4.080652e+01 -3.147910e+00
    endloop
  endfacet
  facet normal  2.328215e-01  0.000000e+00  9.725195e-01
    outer loop
      vertex  1.968905e+01  4.027583e+01 -3.147910e+00
      vertex  1.968905e+01  4.080652e+01 -3.147910e+00
      vertex  1.922075e+01  4.027485e+01 -3.035797e+00
    endloop
  endfacet
  facet normal  2.328216e-01  -0.000000e+00  9.725195e-01
    outer loop
      vertex  1.922075e+01  4.027485e+01 -3.035797e+00
      vertex  1.968905e+01  4.080652e+01 -3.147910e+00
      vertex  1.922075e+01  4.080750e+01 -3.035797e+00
    endloop
  endfacet
  facet normal  7.422610e-02  0.000000e+00  9.972415e-01
    outer loop
      vertex  1.922075e+01  4.027485e+01 -3.035797e+00
      vertex  1.922075e+01  4.080750e+01 -3.035797e+00
      vertex  1.874054e+01  4.027454e+01 -3.000055e+00
    endloop
  endfacet
  facet normal  7.422610e-02  -0.000000e+00  9.972414e-01
    outer loop
      vertex  1.874054e+01  4.027454e+01 -3.000055e+00
      vertex  1.922075e+01  4.080750e+01 -3.035797e+00
      vertex  1.874054e+01  4.080782e+01 -3.000055e+00
    endloop
  endfacet
  facet normal -7.842752e-02  0.000000e+00  9.969198e-01
    outer loop
      vertex  1.874054e+01  4.027454e+01 -3.000055e+00
      vertex  1.874054e+01  4.080782e+01 -3.000055e+00
      vertex  1.830753e+01  4.027484e+01 -3.034119e+00
    endloop
  endfacet
  facet normal -7.842752e-02  0.000000e+00  9.969199e-01
    outer loop
      vertex  1.830753e+01  4.027484e+01 -3.034119e+00
      vertex  1.874054e+01  4.080782e+01 -3.000055e+00
      vertex  1.830753e+01  4.080752e+01 -3.034119e+00
    endloop
  endfacet
  facet normal -2.215660e-01  0.000000e+00  9.751454e-01
    outer loop
      vertex  1.830753e+01  4.027484e+01 -3.034119e+00
      vertex  1.830753e+01  4.080752e+01 -3.034119e+00
      vertex  1.788398e+01  4.027568e+01 -3.130357e+00
    endloop
  endfacet
  facet normal -2.215660e-01  0.000000e+00  9.751453e-01
    outer loop
      vertex  1.788398e+01  4.027568e+01 -3.130357e+00
      vertex  1.830753e+01  4.080752e+01 -3.034119e+00
      vertex  1.788398e+01  4.080667e+01 -3.130357e+00
    endloop
  endfacet
  facet normal -3.600473e-01  0.000000e+00  9.329340e-01
    outer loop
      vertex  1.788398e+01  4.027568e+01 -3.130357e+00
      vertex  1.788398e+01  4.080667e+01 -3.130357e+00
      vertex  1.747876e+01  4.027704e+01 -3.286743e+00
    endloop
  endfacet
  facet normal -3.600473e-01  0.000000e+00  9.329340e-01
    outer loop
      vertex  1.747876e+01  4.027704e+01 -3.286743e+00
      vertex  1.788398e+01  4.080667e+01 -3.130357e+00
      vertex  1.747876e+01  4.080531e+01 -3.286743e+00
    endloop
  endfacet
  facet normal -4.909921e-01  0.000000e+00  8.711641e-01
    outer loop
      vertex  1.747876e+01  4.027704e+01 -3.286743e+00
      vertex  1.747876e+01  4.080531e+01 -3.286743e+00
      vertex  1.710038e+01  4.027890e+01 -3.500000e+00
    endloop
  endfacet
  facet normal -4.909920e-01  0.000000e+00  8.711641e-01
    outer loop
      vertex  1.710038e+01  4.027890e+01 -3.500000e+00
      vertex  1.747876e+01  4.080531e+01 -3.286743e+00
      vertex  1.710038e+01  4.080345e+01 -3.500000e+00
    endloop
  endfacet
  facet normal  5.065647e-01  0.000000e+00  8.622019e-01
    outer loop
      vertex  7.899625e+00  4.027890e+01 -3.500000e+00
      vertex  7.899625e+00  4.080345e+01 -3.500000e+00
      vertex  7.617877e+00  4.027746e+01 -3.334466e+00
    endloop
  endfacet
  facet normal  5.065647e-01  -0.000000e+00  8.622019e-01
    outer loop
      vertex  7.617877e+00  4.027746e+01 -3.334466e+00
      vertex  7.899625e+00  4.080345e+01 -3.500000e+00
      vertex  7.617877e+00  4.080490e+01 -3.334466e+00
    endloop
  endfacet
  facet normal  3.859565e-01  0.000000e+00  9.225170e-01
    outer loop
      vertex  7.617877e+00  4.027746e+01 -3.334466e+00
      vertex  7.617877e+00  4.080490e+01 -3.334466e+00
      vertex  7.173009e+00  4.027584e+01 -3.148345e+00
    endloop
  endfacet
  facet normal  3.859565e-01  -0.000000e+00  9.225169e-01
    outer loop
      vertex  7.173009e+00  4.027584e+01 -3.148345e+00
      vertex  7.617877e+00  4.080490e+01 -3.334466e+00
      vertex  7.173009e+00  4.080652e+01 -3.148345e+00
    endloop
  endfacet
  facet normal  2.331621e-01  0.000000e+00  9.724379e-01
    outer loop
      vertex  7.173009e+00  4.027584e+01 -3.148345e+00
      vertex  7.173009e+00  4.080652e+01 -3.148345e+00
      vertex  6.704062e+00  4.027485e+01 -3.035905e+00
    endloop
  endfacet
  facet normal  2.331621e-01  -0.000000e+00  9.724379e-01
    outer loop
      vertex  6.704062e+00  4.027485e+01 -3.035905e+00
      vertex  7.173009e+00  4.080652e+01 -3.148345e+00
      vertex  6.704062e+00  4.080750e+01 -3.035905e+00
    endloop
  endfacet
  facet normal  7.434255e-02  0.000000e+00  9.972328e-01
    outer loop
      vertex  6.704062e+00  4.027485e+01 -3.035905e+00
      vertex  6.704062e+00  4.080750e+01 -3.035905e+00
      vertex  6.223162e+00  4.027454e+01 -3.000055e+00
    endloop
  endfacet
  facet normal  7.434255e-02  -0.000000e+00  9.972328e-01
    outer loop
      vertex  6.223162e+00  4.027454e+01 -3.000055e+00
      vertex  6.704062e+00  4.080750e+01 -3.035905e+00
      vertex  6.223162e+00  4.080782e+01 -3.000055e+00
    endloop
  endfacet
  facet normal -7.842777e-02  0.000000e+00  9.969198e-01
    outer loop
      vertex  6.223162e+00  4.027454e+01 -3.000055e+00
      vertex  6.223162e+00  4.080782e+01 -3.000055e+00
      vertex  5.790157e+00  4.027484e+01 -3.034119e+00
    endloop
  endfacet
  facet normal -7.842777e-02  0.000000e+00  9.969197e-01
    outer loop
      vertex  5.790157e+00  4.027484e+01 -3.034119e+00
      vertex  6.223162e+00  4.080782e+01 -3.000055e+00
      vertex  5.790157e+00  4.080752e+01 -3.034119e+00
    endloop
  endfacet
  facet normal -2.215655e-01  0.000000e+00  9.751455e-01
    outer loop
      vertex  5.790157e+00  4.027484e+01 -3.034119e+00
      vertex  5.790157e+00  4.080752e+01 -3.034119e+00
      vertex  5.366601e+00  4.027568e+01 -3.130357e+00
    endloop
  endfacet
  facet normal -2.215655e-01  0.000000e+00  9.751455e-01
    outer loop
      vertex  5.366601e+00  4.027568e+01 -3.130357e+00
      vertex  5.790157e+00  4.080752e+01 -3.034119e+00
      vertex  5.366601e+00  4.080667e+01 -3.130357e+00
    endloop
  endfacet
  facet normal -3.600470e-01  0.000000e+00  9.329342e-01
    outer loop
      vertex  5.366601e+00  4.027568e+01 -3.130357e+00
      vertex  5.366601e+00  4.080667e+01 -3.130357e+00
      vertex  4.961380e+00  4.027704e+01 -3.286743e+00
    endloop
  endfacet
  facet normal -3.600470e-01  0.000000e+00  9.329342e-01
    outer loop
      vertex  4.961380e+00  4.027704e+01 -3.286743e+00
      vertex  5.366601e+00  4.080667e+01 -3.130357e+00
      vertex  4.961380e+00  4.080531e+01 -3.286743e+00
    endloop
  endfacet
  facet normal -4.909921e-01  0.000000e+00  8.711641e-01
    outer loop
      vertex  4.961380e+00  4.027704e+01 -3.286743e+00
      vertex  4.961380e+00  4.080531e+01 -3.286743e+00
      vertex  4.583000e+00  4.027890e+01 -3.500000e+00
    endloop
  endfacet
  facet normal -4.909920e-01  0.000000e+00  8.711641e-01
    outer loop
      vertex  4.583000e+00  4.027890e+01 -3.500000e+00
      vertex  4.961380e+00  4.080531e+01 -3.286743e+00
      vertex  4.583000e+00  4.080345e+01 -3.500000e+00
    endloop
  endfacet
  facet normal  0.000000e+00  0.000000e+00  1.000000e+00
    outer loop
      vertex  2.041700e+01  4.027890e+01 -3.500000e+00
      vertex  2.521900e+01  4.027890e+01 -3.500000e+00
      vertex  2.041700e+01  4.080345e+01 -3.500000e+00
    endloop
  endfacet
  facet normal  -0.000000e+00  0.000000e+00  1.000000e+00
    outer loop
      vertex  2.041700e+01  4.080345e+01 -3.500000e+00
      vertex  2.521900e+01  4.027890e+01 -3.500000e+00
      vertex  2.521900e+01  4.080345e+01 -3.500000e+00
    endloop
  endfacet
  facet normal  0.000000e+00  0.000000e+00  1.000000e+00
    outer loop
      vertex -2.190000e-01  4.027890e+01 -3.500000e+00
      vertex  4.583000e+00  4.027890e+01 -3.500000e+00
      vertex -2.190000e-01  4.080345e+01 -3.500000e+00
    endloop
  endfacet
  facet normal  -0.000000e+00  0.000000e+00  1.000000e+00
    outer loop
      vertex -2.190000e-01  4.080345e+01 -3.500000e+00
      vertex  4.583000e+00  4.027890e+01 -3.500000e+00
      vertex  4.583000e+00  4.080345e+01 -3.500000e+00
    endloop
  endfacet
  facet normal  0.000000e+00  0.000000e+00  1.000000e+00
    outer loop
      vertex  7.899625e+00  4.027890e+01 -3.500000e+00
      vertex  1.710038e+01  4.027890e+01 -3.500000e+00
      vertex  7.899625e+00  4.080345e+01 -3.500000e+00
    endloop
  endfacet
  facet normal  -0.000000e+00  0.000000e+00  1.000000e+00
    outer loop
      vertex  7.899625e+00  4.080345e+01 -3.500000e+00
      vertex  1.710038e+01  4.027890e+01 -3.500000e+00
      vertex  1.710038e+01  4.080345e+01 -3.500000e+00
    endloop
  endfacet
endsolid CATIA STL
